<svg id="eVNB9a12wKs1" xmlns="http://www.w3.org/2000/svg" xmlns:xlink="http://www.w3.org/1999/xlink" viewBox="0 0 849 849" shape-rendering="geometricPrecision" text-rendering="geometricPrecision"><defs><radialGradient id="eVNB9a12wKs3-fill" cx="0" cy="0" r="1" spreadMethod="pad" gradientUnits="userSpaceOnUse" gradientTransform="matrix(424.036987 0 0 424.036987 424.036987 424.036987)"><stop id="eVNB9a12wKs3-fill-0" offset="0%" stop-color="#a53bff"/><stop id="eVNB9a12wKs3-fill-1" offset="100%" stop-color="rgba(165,59,255,0)"/></radialGradient><radialGradient id="eVNB9a12wKs4-stroke" cx="0" cy="0" r="1" spreadMethod="pad" gradientUnits="userSpaceOnUse" gradientTransform="matrix(386.015015 0 0 391.951996 439.391998 434.597992)"><stop id="eVNB9a12wKs4-stroke-0" offset="50%" stop-color="#fff"/><stop id="eVNB9a12wKs4-stroke-1" offset="100%" stop-color="rgba(0,13,255,0.24)"/></radialGradient><radialGradient id="eVNB9a12wKs5-stroke" cx="0" cy="0" r="1" spreadMethod="pad" gradientUnits="userSpaceOnUse" gradientTransform="matrix(-315.526001 0 0 -320.985992 439.391998 434.597992)"><stop id="eVNB9a12wKs5-stroke-0" offset="64%" stop-color="#8732d4"/><stop id="eVNB9a12wKs5-stroke-1" offset="100%" stop-color="rgba(0,161,218,0.4)"/></radialGradient><linearGradient id="eVNB9a12wKs11-fill" x1="118289" y1="80284.7" x2="315069" y2="80284.7" spreadMethod="pad" gradientUnits="userSpaceOnUse" gradientTransform="translate(0 0)"><stop id="eVNB9a12wKs11-fill-0" offset="0%" stop-color="#e4e4e4"/><stop id="eVNB9a12wKs11-fill-1" offset="100%" stop-color="#000"/></linearGradient><linearGradient id="eVNB9a12wKs14-fill" x1="117773" y1="65558.6" x2="314465" y2="65558.6" spreadMethod="pad" gradientUnits="userSpaceOnUse" gradientTransform="translate(0 0)"><stop id="eVNB9a12wKs14-fill-0" offset="0%" stop-color="#f3f5f8"/><stop id="eVNB9a12wKs14-fill-1" offset="100%" stop-color="#cad1ed"/></linearGradient></defs><g id="eVNB9a12wKs2" transform="translate(.000001 0.000001)"><path d="M424.037,848.074c234.189,0,424.037-189.848,424.037-424.037s-189.848-424.037-424.037-424.037C189.848,0,0,189.848,0,424.037s189.848,424.037,424.037,424.037Z" transform="translate(.875188-1.104015)" opacity="0.25" fill="url(#eVNB9a12wKs3-fill)"/><path d="M487.023,478.918c0-54.994-93.816-85.546-93.816,0c0,124.651,192.443,130.761,192.443,0c0-218.752-298.287-186.978-298.287,0c0,310.406,410.145,267.633,410.145,0c0-370.289-546.058-393.508-546.058,0c0,482.718,633.271,444.284,672.349-1.223c49.313-562.1531-1054.83-661.141-700.013,194.31" fill="none" stroke="url(#eVNB9a12wKs4-stroke)" stroke-width="6.06192" stroke-linecap="round" stroke-miterlimit="10" stroke-dasharray="0.01,181.86"/><path d="M400.458,398.302c0,45.036,76.685,70.057,76.685,0c0-102.082-157.302-107.086-157.302,0c0,179.145,243.818,153.124,243.818,0c0-254.205-335.25-219.177-335.25,0c0,303.245,446.345,322.26,446.345,0c0-395.31904-517.633-363.8436-549.575,1.001C84.8706,859.675,987.392,940.74,697.366,240.174" fill="none" stroke="url(#eVNB9a12wKs5-stroke)" stroke-width="4.95967" stroke-linecap="round" stroke-miterlimit="10" stroke-dasharray="0.01,119.03"/></g><g transform="matrix(1.45775 0 0 1.45775-193.811347-193.967679)"><path d="M238.6,435.3v4.9l-7.7-4.5v-4.9l7.7,4.5Z" fill="#d3d8f9"/><path d="M284.9,408.5v4.9l-46.3,26.8v-4.9l46.3-26.8Z" fill="#9daae2"/><path d="M277.2,404.1l7.7,4.4-46.3,26.8-7.7-4.5l46.3-26.7Z" fill="#f0eff7"/><g opacity="0.1"><path d="M645.8,491.5L424.7,620L202.2,491.5l221-128.4L645.8,491.5Z" opacity="0.1" fill="url(#eVNB9a12wKs11-fill)"/></g><path d="M644.6,434.4v14.8L423.5,577.7l.1-14.8l221-128.5Z" fill="#9daae2"/><path d="M423.6,562.9l-.1,14.8L201,449.2l.1-14.8L423.6,562.9Z" fill="#d3d8f9"/><path d="M644.6,434.4l-221,128.5L201.1,434.4L422.1,306L644.6,434.4Z" fill="url(#eVNB9a12wKs14-fill)"/><path d="M596.8,471.4v5.2l-49.6,28.6v-5.2l49.6-28.6Z" fill="#9daae2"/><g opacity="0.1"><path d="M523,428.9c19.3,11.1,19.4,29.2.2,40.3-19.2,11.2-50.4,11.2-69.7,0-19.3-11.1-19.4-29.2-.2-40.3c19.2-11.2,50.4-11.2,69.7,0Z" opacity="0.1"/></g><g opacity="0.1"><path d="M201.1,434.4l112.6-70.2l116.5,53.6L349,464.6L201.1,434.4Z" opacity="0.1"/></g><path d="M349,458v6.6l-37.4-21.7v-6.7L349,458Z" fill="#4881ff"/><path d="M430.2,411.1v6.7L349,464.6v-6.6l81.2-46.9Z" fill="#c3dff4"/><path d="M392.7,389.4l37.5,21.7L349,458l-37.4-21.8l81.1-46.8Z" fill="#85a9ff"/><path d="M447.2,234l-9.4-5.5c2.1-1.2,4-1.3,5.4-.5c3.133,1.8,6.267,3.6,9.4,5.4-1.4-.8-3.3-.6-5.4.6v0Z" fill="#c3dff4"/><path d="M452,233.2l-9.4-5.5c.2.067.4.167.6.3l9.4,5.4c-.2-.067-.4-.133-.6-.2v0Z" fill="#85a9ff"/><path d="M451.4,233l-9.3-5.5c.133.067.3.133.5.2l9.4,5.5c-.2-.067-.4-.133-.6-.2Z" fill="#85a9ff"/><path d="M451,232.9l-9.4-5.4c.133,0,.3,0,.5,0l9.3,5.5c-.133,0-.267-.033-.4-.1Z" fill="#85a9ff"/><path d="M450.6,232.9l-9.4-5.4c.133,0,.267,0,.4,0l9.4,5.4c-.133,0-.267,0-.4,0Z" fill="#85a9ff"/><path d="M450.3,232.9l-9.4-5.4c.067,0,.167,0,.3,0l9.4,5.4c-.133,0-.233,0-.3,0v0Z" fill="#85a9ff"/><path d="M449.9,233l-9.4-5.5c.133,0,.267,0,.4,0l9.4,5.4c-.133.067-.267.1-.4.1Z" fill="#85a9ff"/><path d="M449.6,233l-9.4-5.4c.067-.067.167-.1.3-.1l9.4,5.5c-.133,0-.233,0-.3,0v0Z" fill="#85a9ff"/><path d="M449.3,233.1l-9.4-5.5c.067,0,.167,0,.3,0l9.4,5.4c-.133.067-.233.1-.3.1v0Z" fill="#85a9ff"/><path d="M449,233.2l-9.4-5.5c.067,0,.167-.033.3-.1l9.4,5.5c-.133,0-.233.033-.3.1v0Z" fill="#85a9ff"/><path d="M448.7,233.3l-9.5-5.5c.133,0,.267-.033.4-.1l9.4,5.5c-.133,0-.233.033-.3.1Z" fill="#85a9ff"/><path d="M448.3,233.4l-9.4-5.5c.133,0,.233-.033.3-.1l9.5,5.5c-.133,0-.267.033-.4.1v0Z" fill="#85a9ff"/><path d="M448,233.5l-9.4-5.4c.133-.067.233-.133.3-.2l9.4,5.5c-.067.067-.167.1-.3.1v0Z" fill="#85a9ff"/><path d="M447.7,233.7l-9.4-5.5c.133-.067.233-.1.3-.1l9.4,5.4c-.067.067-.167.133-.3.2Z" fill="#85a9ff"/><path d="M447.4,233.8l-9.4-5.4c.133-.067.233-.133.3-.2l9.4,5.5c-.067.067-.167.1-.3.1Z" fill="#85a9ff"/><path d="M447.2,234l-9.4-5.5c.067-.067.133-.1.2-.1l9.4,5.4c-.067.067-.133.133-.2.2Z" fill="#85a9ff"/><path d="M279.8,442.1v13.2c0,.6.067,1.133.2,1.6c0,.067,0,.1,0,.1.067.467.2.9.4,1.3s.4.7.6,1c.067.067.133.133.2.2.267.267.533.5.8.7l-9.4-5.5c-.267-.2-.533-.433-.8-.7-.067-.067-.133-.133-.2-.2-.133-.133-.233-.267-.3-.4-.133-.133-.233-.3-.3-.5-.067-.133-.133-.267-.2-.4c0-.133-.033-.267-.1-.4c0-.133-.033-.267-.1-.4c0-.067,0-.133,0-.2-.067-.067-.1-.133-.1-.2c0-.133,0-.267,0-.4c0-.067-.033-.167-.1-.3c0-.133,0-.267,0-.4s0-.233,0-.3s0-.1,0-.1v-13.1l9.4,5.4Z" fill="#85a9ff"/><path d="M350.1,443l-30.3-2l23.6-13.6l6.7,15.6Z" fill="#4881ff"/><path d="M350.1,443l-7.7-4.4l4.6-54.5l7.7,4.4-4.6,54.5Z" fill="#85a9ff"/><path d="M354.7,388.5l-7.7-4.4l44.2-25.5l7.6,4.5-44.1,25.4Z" fill="#85a9ff"/><path d="M398.8,363.1l3.3,49.9-52,30l4.6-54.5l44.1-25.4Z" fill="#8ebed6"/><path d="M398.8,363.1l3.3,49.9-52,30l33.8-39l14.9-40.9Z" fill="#c0ddff"/><path d="M279.8,442.1l-9.4-5.4L445.7,335.4l9.4,5.5L279.8,442.1Z" fill="#dcc9a0"/><path d="M448.2,337l-9.4-5.5-.2-94.6l9.4,5.5.2,94.6Z" fill="#584245"/><path d="M287.9,429.6l-9.4-5.5l160.3-92.6l9.4,5.5-160.3,92.6Z" fill="#62494d"/><path d="M455.1,340.9v13.2c.1,4.8-3.3,10.7-7.5,13.1L287.5,459.7c-4.3,2.4-7.7.4-7.7-4.4v-13.2L455.1,340.9Z" fill="#add3ea"/><path d="M448,242.4l.2,94.6-160.3,92.6-.3-94.6L448,242.4Z" fill="#5c8fc6"/><path d="M287.6,335l158.6-91.6.3,92.6-158.6,91.6-.3-92.6Z" fill="#709dda"/><path d="M287.9,429.6l-9.4-5.5-.3-94.6l9.4,5.5.3,94.6Z" fill="#82b3b8"/><path d="M287.6,335l-9.4-5.5l160.4-92.6l9.4,5.5L287.6,335Z" fill="#92c8ce"/><path d="M279.8,442.1l-9.4-5.4-.3-102.6l9.4,5.5.3,102.5Z" fill="#85a9ff"/><path d="M287.1,326.4l-9.4-5.5l160.1-92.4l9.4,5.5-160.1,92.4Z" fill="#c3dff4"/><path d="M447.2,234c4.2-2.4,7.6-.5,7.6,4.3l.3,102.6L279.8,442.1l-.3-102.5c0-4.9,3.4-10.8,7.6-13.2L447.2,234ZM287.9,429.6L448.2,337l-.2-94.6L287.6,335l.3,94.6Z" clip-rule="evenodd" fill="#e3f1fe" fill-rule="evenodd"/><path d="M270.1,334.1c0-.133,0-.233,0-.3c0-.133,0-.267,0-.4s0-.267,0-.4c.067-.133.1-.267.1-.4s0-.233,0-.3s0-.1,0-.1c.067-.067.1-.167.1-.3s.033-.267.1-.4c0-.133.033-.267.1-.4c0-.133.033-.267.1-.4c0-.133.033-.267.1-.4s.1-.267.1-.4c.067-.133.133-.267.2-.4c0-.133.033-.267.1-.4s.1-.267.1-.4c.067-.067.133-.133.2-.2c0,0,0-.033,0-.1c0-.1.1-.3.2-.4.067-.133.133-.267.2-.4s.133-.267.2-.4c.067-.2.167-.4.3-.6c0,0,.033-.033.1-.1.133-.333.3-.633.5-.9.2-.2.367-.433.5-.7.133-.133.267-.267.4-.4.067-.133.133-.267.2-.4.133-.133.233-.233.3-.3.133-.133.233-.267.3-.4.067,0,.1,0,.1,0s0-.033,0-.1c.067-.067.133-.133.2-.2.133-.133.267-.233.4-.3.067-.133.167-.233.3-.3.133-.133.233-.233.3-.3s.133-.133.2-.2c0,0,.033,0,.1,0c0,0,.033-.033.1-.1.133-.067.233-.167.3-.3.133-.067.267-.133.4-.2.067-.067.167-.133.3-.2.067-.067.167-.133.3-.2c0,0,.033-.033.1-.1l9.4,5.5c-.533.333-1.033.7-1.5,1.1-.067,0-.1,0-.1,0-.467.4-.933.833-1.4,1.3s-.9,1-1.3,1.6c-.4.533-.767,1.1-1.1,1.7-.7,1.2-1.3,2.4-1.6,3.7-.2.6-.367,1.233-.5,1.9-.067.667-.1,1.3-.1,1.9l-9.4-5.5Z" fill="#c3dff4"/><path d="M380,391.3c2.1-1.2,3.9-.2,3.9,2.2c0,2.5-1.7,5.5-3.9,6.8-2.1,1.2-3.9.2-3.9-2.3c0-2.4,1.7-5.4,3.9-6.7Z" fill="#476f99"/><path d="M379.8,391.3c2.1-1.2,3.7-.2,3.7,2.1c0,2.4-1.6,5.2-3.7,6.4-2,1.2-3.7.2-3.7-2.1c0-2.4,1.7-5.2,3.7-6.4Z" fill="#85a9ff"/><path d="M303.1,335.9c1.8-1,3.2-.2,3.2,1.8c0,2.1-1.4,4.6-3.2,5.6-1.7,1-3.2.2-3.2-1.9c0-2,1.4-4.5,3.2-5.5v0Z" fill="#ff66a8"/><path d="M311.2,331.3c1.8-1.1,3.2-.3,3.2,1.8c0,2-1.4,4.5-3.2,5.5s-3.2.2-3.2-1.8c0-2.1,1.4-4.5,3.2-5.5Z" fill="#ffb420"/><path d="M319.3,326.6c1.8-1,3.2-.2,3.2,1.8s-1.4,4.5-3.2,5.5c-1.8,1.1-3.2.2-3.2-1.8s1.4-4.5,3.2-5.5Z" fill="#70a6c5"/><path d="M459.7,251.9v2l-10.5,6v-1.9l10.5-6.1Z" fill="#70a6c5"/><path d="M459.7,248.3v1.9l-10.5,6v-1.9l10.5-6Z" fill="#70a6c5"/><path d="M459.6,244.6l.1,1.9-10.5,6v-1.9l10.4-6Z" fill="#70a6c5"/><path d="M294.5,336l171.2-98.8v17.5L294.5,353.6v-17.6Zm16.8,2.6c1.7-1.1,3.2-3.6,3.1-5.6c0-2-1.4-2.8-3.2-1.8-1.7,1-3.2,3.5-3.2,5.5s1.5,2.9,3.3,1.9v0Zm-8.1,4.6c1.7-1,3.2-3.5,3.2-5.5c0-2.1-1.5-2.9-3.2-1.8-1.8,1-3.3,3.4-3.2,5.5c0,2,1.4,2.8,3.2,1.8Zm16.2-9.3c1.7-1,3.1-3.5,3.1-5.5c0-2.1-1.4-2.9-3.2-1.9s-3.2,3.5-3.2,5.5c0,2.1,1.5,2.9,3.3,1.9v0Zm140.3-87.5v-1.9l-10.5,6.1v1.9l10.5-6.1Zm0,7.3v-1.9l-10.4,6.1v1.9l10.4-6.1Zm0-3.7v-1.9l-10.5,6v1.9l10.5-6Z" clip-rule="evenodd" fill="#4267c5" fill-rule="evenodd"/><path d="M278.6,363.1l-3.4-1.9l3.4,1.9Z" fill="#2d509e"/><path d="M278.6,363.1l-3.4-1.9c.067,0,.1,0,.1,0l3.4,2c-.067-.067-.1-.1-.1-.1Z" fill="#2e53a3"/><path d="M278.7,363.2l-3.4-2c.067,0,.1.033.1.1l3.4,1.9c-.067,0-.1,0-.1,0Z" fill="#3055a8"/><path d="M278.8,363.2l-3.4-1.9c.067,0,.1,0,.1,0l3.4,1.9c-.067,0-.1,0-.1,0Z" fill="#3158ad"/><path d="M278.9,363.2l-3.4-1.9c.067,0,.1,0,.1,0l3.4,1.9c0,0-.033,0-.1,0Z" fill="#325ab3"/><path d="M279,363.2l-3.4-1.9c.067,0,.1,0,.1,0l3.4,1.9c0,0-.033,0-.1,0Z" fill="#345db8"/><path d="M279.1,363.2l-3.4-1.9c.067,0,.133,0,.2,0l3.4,1.9c-.067,0-.133,0-.2,0Z" fill="#355fbd"/><path d="M279.3,363.2l-3.4-1.9c.067,0,.1-.033.1-.1l3.4,2c-.067,0-.1,0-.1,0Z" fill="#3762c2"/><path d="M279.4,363.2l-3.4-2c.067,0,.133,0,.2,0l3.4,1.9c-.067,0-.133.033-.2.1Z" fill="#3865c7"/><path d="M279.6,363.1l-3.4-1.9c.133-.067.233-.133.3-.2l3.4,2c-.067,0-.167.033-.3.1v0Z" fill="#3a67cc"/><path d="M279.9,363l-3.4-2c.2-.067.4-.2.6-.4l3.4,1.9c-.2.2-.4.367-.6.5Z" fill="#3a67cc"/><path d="M280.5,362.5l-3.4-1.9c.067-.067.133-.167.2-.3l3.4,2c-.067.067-.133.133-.2.2Z" fill="#3865c7"/><path d="M280.7,362.3l-3.4-2c.067,0,.1-.033.1-.1l3.4,1.9c0,.067-.033.133-.1.2v0Z" fill="#3762c2"/><path d="M280.8,362.1l-3.4-1.9c.067-.067.133-.133.2-.2l3.4,1.9c-.067.067-.133.133-.2.2Z" fill="#355fbd"/><path d="M281,361.9l-3.4-1.9c0-.067.033-.133.1-.2l3.4,2c-.067.067-.1.1-.1.1v0Z" fill="#345db8"/><path d="M281.1,361.8l-3.4-2c0,0,.033-.033.1-.1l3.4,1.9c-.067.067-.1.133-.1.2v0Z" fill="#325ab3"/><path d="M281.2,361.6l-3.4-1.9c0-.067.033-.133.1-.2l3.3,2c0,0,0,.033,0,.1v0Z" fill="#3158ad"/><path d="M281.2,361.5l-3.3-2c0,0,0-.033,0-.1l3.4,1.9c0,.067-.033.133-.1.2v0Z" fill="#3055a8"/><path d="M281.3,361.3l-3.4-1.9c.067-.067.1-.133.1-.2l3.4,2c0,0-.033.033-.1.1v0Z" fill="#2e53a3"/><path d="M281.4,361.2l-3.4-2c0-.067.033-.1.1-.1l3.4,1.9c-.067.067-.1.133-.1.2v0Z" fill="#2d509e"/><path d="M281.5,361l-3.4-1.9c0-.067,0-.133,0-.2l3.4,1.9c0,.067,0,.133,0,.2Z" fill="#2b4d99"/><path d="M281.5,360.8l-3.4-1.9c.067-.067.1-.133.1-.2l3.4,1.9c-.067.067-.1.133-.1.2Z" fill="#2a4b94"/><path d="M281.6,360.6l-3.4-1.9c0-.067,0-.133,0-.2l3.4,1.9c0,.067,0,.133,0,.2Z" fill="#28488f"/><path d="M281.6,360.4l-3.4-1.9c.067-.067.1-.167.1-.3l3.4,2c-.067.067-.1.133-.1.2Z" fill="#27468a"/><path d="M281.7,360.2l-3.4-2c0-.067,0-.167,0-.3c0-.6-.2-1-.5-1.2l3.3,1.9c.4.2.6.6.6,1.2c0,.133,0,.267,0,.4v0Z" fill="#254385"/><path d="M275.2,365.7l-3.3-1.9c.2-.133.4-.3.6-.5l3.4,1.9c-.2.2-.433.367-.7.5Z" fill="#3a67cc"/><path d="M275.9,365.2l-3.4-1.9c.067-.067.133-.133.2-.2l3.4,1.9c-.067.067-.133.133-.2.2Z" fill="#3865c7"/><path d="M276.1,365l-3.4-1.9c0-.067.033-.133.1-.2l3.4,1.9c-.067.067-.1.133-.1.2Z" fill="#3762c2"/><path d="M276.2,364.8l-3.4-1.9c.067-.067.1-.133.1-.2l3.4,2c0,.067-.033.1-.1.1v0Z" fill="#355fbd"/><path d="M276.3,364.7l-3.4-2c.067,0,.1-.033.1-.1l3.4,1.9c0,.067-.033.133-.1.2v0Z" fill="#345db8"/><path d="M276.4,364.5l-3.4-1.9c.067-.067.1-.133.1-.2l3.4,2c0,0-.033.033-.1.1v0Z" fill="#325ab3"/><path d="M276.5,364.4l-3.4-2c.067-.067.1-.1.1-.1l3.4,1.9c0,.067-.033.133-.1.2v0Z" fill="#3158ad"/><path d="M276.6,364.2l-3.4-1.9c.067-.067.1-.133.1-.2l3.4,1.9c-.067.067-.1.133-.1.2Z" fill="#3055a8"/><path d="M276.7,364l-3.4-1.9c0-.067.033-.1.1-.1l3.3,1.9c0,.067,0,.1,0,.1v0Z" fill="#2e53a3"/><path d="M276.7,363.9l-3.3-1.9c0-.067,0-.133,0-.2l3.4,1.9c0,.067-.033.133-.1.2v0Z" fill="#2d509e"/><path d="M276.8,363.7l-3.4-1.9c.067-.067.1-.133.1-.2l3.4,2c-.067,0-.1.033-.1.1v0Z" fill="#2b4d99"/><path d="M276.9,363.6l-3.4-2c0-.067,0-.133,0-.2l3.4,2c0,.067,0,.133,0,.2Z" fill="#2a4b94"/><path d="M276.9,363.4l-3.4-2c.067-.067.1-.133.1-.2l3.4,2c0,.067-.033.133-.1.2Z" fill="#28488f"/><path d="M277,363.2l-3.4-2c0-.067,0-.133,0-.2l3.4,1.9c0,.067,0,.167,0,.3Z" fill="#27468a"/><path d="M277,362.9l-3.4-1.9c.067-.133.1-.267.1-.4c0-.6-.3-1-.6-1.1l3.4,1.9c.3.2.5.6.5,1.1c0,.133,0,.267,0,.4Z" fill="#254385"/><path d="M275.2,361.5l-3.4-1.9c.067-.067.167-.1.3-.1l3.4,1.9c-.133,0-.233.033-.3.1Z" fill="#752289"/><path d="M275.5,361.4l-3.4-1.9c.067-.067.133-.1.2-.1l3.4,1.9c-.067,0-.133.033-.2.1Z" fill="#722285"/><path d="M275.7,361.3l-3.4-1.9c.067,0,.1-.033.1-.1l3.4,2c0,0-.033,0-.1,0Z" fill="#6f2182"/><path d="M275.8,361.3l-3.4-2c.067,0,.133,0,.2,0l3.4,2c-.067,0-.133,0-.2,0Z" fill="#6c207f"/><path d="M276,361.3l-3.4-2c0,0,.033,0,.1,0l3.4,2c-.067,0-.1,0-.1,0Z" fill="#691f7b"/><path d="M276.1,361.3l-3.4-2c.067,0,.1,0,.1,0l3.4,2c0,0-.033,0-.1,0Z" fill="#661e78"/><path d="M276.2,361.3l-3.4-2c.067.067.1.1.1.1l3.4,1.9c0,0-.033,0-.1,0Z" fill="#631d74"/><path d="M276.3,361.3l-3.4-1.9c.067,0,.1,0,.1,0l3.4,1.9c0,0-.033,0-.1,0Z" fill="#601c71"/><path d="M276.4,361.3l-3.4-1.9c.067,0,.1,0,.1,0l3.4,2c-.067,0-.1-.033-.1-.1Z" fill="#5d1c6d"/><path d="M276.5,361.4l-3.4-1.9c0-.067,0-.1,0-.1l3.4,2Z" fill="#5b1b6a"/><path d="M274,365.8l-3.4-1.9c-.4-.2-.6-.6-.6-1.1c0-.133.033-.267.1-.4l3.3,1.9c0,.133,0,.267,0,.4c0,.5.2.9.6,1.1v0Z" fill="#4c1659"/><path d="M273.4,364.3l-3.3-1.9c0-.067,0-.167,0-.3l3.4,2c-.067.067-.1.133-.1.2v0Z" fill="#4f175c"/><path d="M273.5,364.1l-3.4-2c0-.067,0-.133,0-.2l3.4,2c0,.067,0,.133,0,.2Z" fill="#521860"/><path d="M273.5,363.9l-3.4-2c.067-.067.1-.133.1-.2l3.4,2c0,.067-.033.133-.1.2Z" fill="#551963"/><path d="M273.6,363.7l-3.4-2c0,0,.033-.033.1-.1l3.3,1.9c0,.067,0,.133,0,.2v0Z" fill="#581a67"/><path d="M273.6,363.5l-3.3-1.9c0-.067,0-.133,0-.2l3.4,1.9c0,.067-.033.133-.1.2v0Z" fill="#5b1b6a"/><path d="M273.7,363.3l-3.4-1.9c0-.067.033-.133.1-.2l3.4,2c-.067.067-.1.1-.1.1v0Z" fill="#5d1c6d"/><path d="M273.8,363.2l-3.4-2c0,0,.033-.033.1-.1l3.4,1.9c-.067.067-.1.133-.1.2v0Z" fill="#601c71"/><path d="M273.9,363l-3.4-1.9c0-.067,0-.133,0-.2l3.4,2c0,.067,0,.1,0,.1v0Z" fill="#631d74"/><path d="M273.9,362.9l-3.4-2c.067,0,.1-.033.1-.1l3.4,1.9c0,.067-.033.133-.1.2v0Z" fill="#661e78"/><path d="M274,362.7l-3.4-1.9c.067-.067.1-.133.1-.2l3.4,2c0,0-.033.033-.1.1v0Z" fill="#691f7b"/><path d="M274.1,362.6l-3.4-2c.067-.067.133-.1.2-.1l3.4,1.9c-.067.067-.133.133-.2.2v0Z" fill="#6c207f"/><path d="M274.3,362.4l-3.4-1.9c0-.067.033-.133.1-.2l3.4,1.9c-.067.067-.1.133-.1.2Z" fill="#6f2182"/><path d="M274.4,362.2l-3.4-1.9c.067-.067.133-.133.2-.2l3.4,1.9c-.067.067-.133.133-.2.2Z" fill="#722285"/><path d="M274.6,362l-3.4-1.9c.2-.2.4-.367.6-.5l3.4,1.9c-.2.133-.4.3-.6.5Z" fill="#752289"/><path d="M269.3,368.6l-3.4-2c0,0,0,.033,0,.1l3.4,1.9Z" fill="#2d509e"/><path d="M269.3,368.6l-3.4-1.9c.067,0,.1,0,.1,0l3.4,1.9c0,0-.033,0-.1,0Z" fill="#2e53a3"/><path d="M269.4,368.6l-3.4-1.9c.067,0,.1,0,.1,0l3.4,2c0-.067-.033-.1-.1-.1Z" fill="#3055a8"/><path d="M269.5,368.7l-3.4-2c.067,0,.1.033.1.1l3.4,1.9c0,0-.033,0-.1,0Z" fill="#3158ad"/><path d="M269.6,368.7l-3.4-1.9c.067,0,.1,0,.1,0l3.4,1.9c0,0-.033,0-.1,0Z" fill="#325ab3"/><path d="M269.7,368.7l-3.4-1.9c.067,0,.133,0,.2,0l3.3,1.9c0,0-.033,0-.1,0Z" fill="#345db8"/><path d="M269.8,368.7l-3.3-1.9c0,0,.033-.033.1-.1l3.4,2c-.067,0-.133,0-.2,0Z" fill="#355fbd"/><path d="M270,368.7l-3.4-2c.067,0,.133,0,.2,0l3.3,1.9c0,.067-.033.1-.1.1Z" fill="#3762c2"/><path d="M270.1,368.6l-3.3-1.9c.067,0,.133-.033.2-.1l3.4,2c-.067,0-.167,0-.3,0v0Z" fill="#3865c7"/><path d="M270.4,368.6l-3.4-2c.067,0,.133-.033.2-.1l3.4,1.9c-.067.067-.133.133-.2.2v0Z" fill="#3a67cc"/><path d="M270.6,368.4l-3.4-1.9c.2-.133.4-.3.6-.5l3.4,2c-.2.133-.4.267-.6.4Z" fill="#3a67cc"/><path d="M271.2,368l-3.4-2c.067-.067.133-.133.2-.2l3.4,1.9c-.067.133-.133.233-.2.3Z" fill="#3865c7"/><path d="M271.4,367.7l-3.4-1.9c.067-.067.133-.133.2-.2l3.4,2c-.067.067-.133.1-.2.1v0Z" fill="#3762c2"/><path d="M271.6,367.6l-3.4-2c0,0,.033-.033.1-.1l3.4,1.9c-.067.067-.1.133-.1.2v0Z" fill="#355fbd"/><path d="M271.7,367.4l-3.4-1.9c0-.067.033-.133.1-.2l3.4,1.9c-.067.067-.1.133-.1.2Z" fill="#345db8"/><path d="M271.8,367.2l-3.4-1.9c0-.067.033-.1.1-.1l3.4,1.9c-.067.067-.1.1-.1.1Z" fill="#325ab3"/><path d="M271.9,367.1l-3.4-1.9c0-.067.033-.133.1-.2l3.4,1.9c-.067.067-.1.133-.1.2Z" fill="#3158ad"/><path d="M272,366.9l-3.4-1.9c0-.067.033-.133.1-.2l3.3,2c0,.067,0,.1,0,.1v0Z" fill="#3055a8"/><path d="M272,366.8l-3.3-2c0,0,0-.033,0-.1l3.4,1.9c0,.067-.033.133-.1.2v0Z" fill="#2e53a3"/><path d="M272.1,366.6l-3.4-1.9c.067-.067.1-.133.1-.2l3.4,2c-.067,0-.1.033-.1.1v0Z" fill="#2d509e"/><path d="M272.2,366.5l-3.4-2c0-.067.033-.1.1-.1l3.3,1.9c0,.067,0,.133,0,.2v0Z" fill="#2b4d99"/><path d="M272.2,366.3l-3.3-1.9c0-.067,0-.133,0-.2l3.4,1.9c0,.067-.033.133-.1.2v0Z" fill="#2a4b94"/><path d="M272.3,366.1l-3.4-1.9c0-.067.033-.133.1-.2l3.3,1.9c0,.067,0,.133,0,.2v0Z" fill="#28488f"/><path d="M272.3,365.9L269,364c0-.133,0-.233,0-.3l3.4,1.9c0,.133-.033.233-.1.3v0Z" fill="#27468a"/><path d="M272.4,365.6l-3.4-1.9c0-.133,0-.233,0-.3c0-.6-.2-1-.5-1.2l3.4,1.9c.3.2.5.6.5,1.2c0,.133,0,.233,0,.3Z" fill="#254385"/><path d="M345.6,316.4c1.9-1.1,3.4-.2,3.4,1.9l.1,7.5-84.5,49.8-.1-7.5c-.1-2.1,1.4-4.8,3.3-5.9l77.8-45.8ZM279.9,363c1-.6,1.8-2,1.8-3.1-.1-1.2-.9-1.7-1.9-1.1s-1.8,2-1.8,3.2.9,1.6,1.9,1v0Zm-4.7,2.8c1-.6,1.8-2.1,1.8-3.2c0-1.2-.8-1.6-1.8-1s-1.8,2-1.8,3.1c0,1.2.8,1.6,1.8,1.1v0Zm-4.6,2.7c1-.6,1.8-2,1.8-3.2c0-1.1-.9-1.6-1.9-1s-1.8,2-1.7,3.2c0,1.1.8,1.6,1.8,1v0Z" clip-rule="evenodd" fill="#bbd2ff" fill-rule="evenodd"/><path d="M279.8,358.8c1-.6,1.9-.1,1.9,1c0,1.2-.8,2.6-1.8,3.2s-1.8.1-1.8-1.1c-.1-1.1.7-2.5,1.7-3.1v0Z" fill="#ff66a8"/><path d="M275.2,361.5c1-.6,1.8-.1,1.8,1c.1,1.2-.7,2.6-1.8,3.2-.9.6-1.8.1-1.8-1c0-1.2.8-2.6,1.8-3.2Z" fill="#70a6c5"/><path d="M270.6,364.3c1-.6,1.8-.2,1.8,1c0,1.1-.8,2.5-1.8,3.1s-1.8.2-1.8-1c0-1.1.8-2.6,1.8-3.1Z" fill="#ffb420"/><path d="M264.5,368.1l.1,7.5l84.5-49.8.7,56.9c0,2.2-1.5,4.8-3.3,5.9l-77.9,45.9c-1.8,1.1-3.3.2-3.4-1.9l-.7-64.5Z" fill="#d7e9ff"/><path d="M321.8,384.4v2.8l-50,28.9v-2.9l50-28.8Z" fill="#91a2c5"/><path d="M321.8,378v2.8l-50,28.9v-2.9l50-28.8Z" fill="#91a2c5"/><path d="M321.8,371.6v2.8l-50,28.9v-2.8l50-28.9Z" fill="#91a2c5"/><path d="M321.8,356.7v2.8l-50.1,28.9v-2.9l50.1-28.8Z" fill="#91a2c5"/><path d="M321.8,363.1v2.8l-50,28.9v-2.9l50-28.8Z" fill="#91a2c5"/><path d="M342.5,361.7v12.8l-17.3,10v-12.8l17.3-10Z" fill="#91a2c5"/><path d="M342.4,344.7l.1,12.8-17.3,10-.1-12.8l17.3-10Z" fill="#91a2c5"/><path d="M430.2,358.4c0,2.7-1.9,5.8-4.2,7.2l-34.6,19.9c-2.3,1.4-4.1.3-4.1-2.3l-.2-63.8v-5.9c0-2.6,1.8-5.8,4.1-7.1l34.6-20c2.3-1.3,4.2-.3,4.2,2.4v5.8l.2,63.8Zm-38.1,21.2l-.1-57.1.1,57.1Zm16.6-14.5l3.7-2.2-3.7,2.2v3.1-3.1Z" opacity="0.1" clip-rule="evenodd" fill-rule="evenodd"/><path d="M390.1,315.8l42.8-24.7.2,63.8c0,2.6-1.8,5.8-4.1,7.1l-34.6,20c-2.3,1.3-4.2.2-4.2-2.4l-.1-63.8Zm18.2,52.6l-.1-57.2-13.2,7.6.1,57.2l13.2-7.6Zm20.1-28.3l-.1-26.5-16.7,9.6.1,26.6l16.7-9.7Zm0,7.8v-3.2l-16.6,9.6v3.2l16.6-9.6Zm-.1-45.2l-.1-3.2-16.6,9.6v3.2l16.7-9.6Zm.1,52.3v-3.1l-16.6,9.6v3.2l16.6-9.7Zm-.1-45.3v-3.2l-16.7,9.7v3.1l16.7-9.6Z" clip-rule="evenodd" fill="#d7e9ff" fill-rule="evenodd"/><path d="M394.9,305.4c1-.6,1.9-.1,1.9,1c0,1.3-.9,2.7-1.9,3.3-1.1.6-1.9.2-1.9-1s.8-2.7,1.9-3.3Z" fill="#ffb420"/><path d="M401.1,301.8c1-.6,1.9-.1,1.9,1.1s-.9,2.6-1.9,3.2c-1.1.7-1.9.2-1.9-1s.8-2.7,1.9-3.3Z" fill="#ff66a8"/><path d="M428.3,351.9v3.2l-16.6,9.6v-3.2l16.6-9.6Z" fill="#91a2c5"/><path d="M428.3,344.8v3.2l-16.7,9.6v-3.2l16.7-9.6Z" fill="#91a2c5"/><path d="M428.2,313.6l.1,26.5-16.7,9.7v-26.6l16.6-9.6Z" fill="#91a2c5"/><path d="M428.2,306.7v3.2l-16.7,9.6v-3.2l16.7-9.6Z" fill="#91a2c5"/><path d="M428.2,299.6v3.1l-16.7,9.6v-3.1l16.7-9.6Z" fill="#91a2c5"/><path d="M428.8,282.8c2.2-1.3,4.1-.2,4.1,2.4v5.9l-42.8,24.7-.1-5.8c0-2.7,1.9-5.9,4.2-7.2l34.6-20Zm-27.7,23.3c1-.6,1.9-2,1.9-3.3c0-1.2-.9-1.6-1.9-1-1.1.6-1.9,2-1.9,3.2c0,1.3.8,1.7,1.9,1.1Zm-6.2,3.6c1-.6,1.9-2.1,1.9-3.3s-.9-1.7-1.9-1.1c-1.1.6-1.9,2.1-1.9,3.3c0,1.3.8,1.7,1.9,1.1Z" clip-rule="evenodd" fill="#bbd2ff" fill-rule="evenodd"/><path d="M408.1,311.3l.1,57.1-13.1,7.6-.2-57.1l13.2-7.6Z" fill="#ff66a8"/><path d="M377.2,329l-3.3-1.9l1.1-.7l3.4,2-1.2.6Z" fill="#db9b1c"/><path d="M378.4,328.4l-3.4-2-.3-5.7l3.4,1.9.3,5.8Z" fill="#865e11"/><path d="M377.2,329l-3.3-1.9-.1-2.2l3.3,1.9.1,2.2Z" fill="#777f86"/><path d="M375,330.2l-3.3-1.9.9-.6l3.3,2-.9.5Z" fill="#db9b1c"/><path d="M375.9,329.7l-3.3-2l.6-2.6l3.3,1.9-.6,2.7Z" fill="#9b6e13"/><path d="M375.5,328.2l-3.3-2c-.1-.6-.3-1.2-.5-1.8l3.4,1.9c.1.6.3,1.3.4,1.9v0Z" fill="#855e11"/><path d="M375.5,328.2l-3.3-2c-.1-.6-.3-1.2-.5-1.8l3.4,1.9c.1.6.3,1.3.4,1.9v0Z" fill="#855e11"/><path d="M377.1,326.8l-3.3-1.9c0-.7,0-1.6,0-2.4l3.3,1.9c0,.9,0,1.7,0,2.4Z" fill="#767d84"/><path d="M376.5,327l-3.3-1.9c.133-.467.233-.967.3-1.5l3.3,2c-.1.5-.2,1-.3,1.4Z" fill="#8f6512"/><path d="M376.8,325.6l-3.3-2c.067-.4.167-.767.3-1.1l3.3,1.9c-.067.4-.167.8-.3,1.2v0Z" fill="#8a6111"/><path d="M372.7,331.6l-3.3-1.9l1.1-.6l3.3,1.9-1.1.6Z" fill="#db9b1c"/><path d="M375.5,328.2l-3.3-2c.1-.7.3-1.5.5-2.2l3.3,1.9c-.2.7-.3,1.6-.5,2.3Z" fill="#7b8289"/><path d="M376,325.9l-3.3-1.9c0-.067,0-.1,0-.1l3.3,1.9c0,.067,0,.1,0,.1Z" fill="#7f878e"/><path d="M375,330.2l-3.3-1.9-.6-2l3.4,2l.5,1.9Z" fill="#72797f"/><path d="M373.8,331l-3.3-1.9v-2.3l3.4,1.9-.1,2.3Z" fill="#8b6211"/><path d="M375.5,328.2l-3.3-2c-.1-.6-.3-1.2-.5-1.8l3.4,1.9c.1.6.3,1.3.4,1.9v0Z" fill="#855e11"/><path d="M376,325.8l-3.3-1.9.5-2.3l3.4,1.9-.6,2.3Z" fill="#8b949c"/><path d="M376.6,323.5l-3.4-1.9l1.5-.9l3.4,1.9-1.5.9Z" fill="#c3cfdb"/><path d="M374.5,328.3l-3.4-2c-.1-.6-.3-1.3-.5-2l3.4,1.9c.1.7.3,1.5.5,2.1Z" fill="#767d84"/><path d="M373.9,328.7l-3.4-1.9c.1-.8.1-1.7.1-2.5l3.4,1.9c-.1.8-.1,1.8-.1,2.5Z" fill="#855e11"/><path d="M372.7,331.6l-3.3-1.9.3-6.1l3.3,2-.3,6Z" fill="#7d848b"/><path d="M372.1,332l-3.3-2v-1.1l3.3,1.9v1.2Z" fill="#886011"/><path d="M375.1,326.3l-3.4-1.9-.5-1.7l3.4,2l.5,1.6Z" fill="#805a10"/><path d="M369,333.8l-3.4-1.9l3.2-1.9l3.3,2-3.1,1.8Z" fill="#db9b1c"/><path d="M370.1,332l-3.3-1.9l2-1.2l3.3,1.9-2,1.2Z" fill="#c3cfdb"/><path d="M373,325.6l-3.3-2l1.5-.9l3.4,2-1.6.9Z" fill="#c3cfdb"/><path d="M367,334.9l-3.3-1.9l1.3-.8l3.3,2-1.3.7Z" fill="#db9b1c"/><path d="M367,334.9l-3.3-1.9-.5-.8l3.3,1.9.5.8Z" fill="#72797f"/><path d="M370.1,332l-3.3-1.9v-4.8l3.3,1.9v4.8Z" fill="#886011"/><path d="M362.2,344.5l-3.3-1.9c-.6-.4-1-1.1-1-2.2l3.3,2c0,1,.4,1.8,1,2.1v0Z" fill="#e58b0a"/><path d="M362.2,344.5l-3.3-1.9c-.6-.4-1-1.1-1-2.2l3.3,2c0,1,.4,1.8,1,2.1v0Z" fill="#e58b0a"/><path d="M365.2,336l-3.3-2l.4-1.3l3.3,1.9-.4,1.4Z" fill="#a47415"/><path d="M366.5,334.1l-3.3-1.9c-.2-.3-.3-.5-.5-.8l3.4,1.9c.1.3.2.5.4.8v0Z" fill="#767d84"/><path d="M365.6,334.6l-3.3-1.9c.2-.5.3-.9.4-1.3l3.3,1.9c-.1.5-.2.8-.4,1.3Z" fill="#946813"/><path d="M366,333.3l-3.3-1.9l3.4,1.9h-.1Z" fill="#db9b1c"/><path d="M369,333.8l-3.4-1.9v-5.9l3.3,1.9.1,5.9Z" fill="#798188"/><path d="M368.3,334.2l-3.3-2-1.5-2.1l3.3,1.9l1.5,2.2Z" fill="#805a10"/><path d="M363.9,336.7l-3.3-1.9l1.3-.8l3.3,2-1.3.7Z" fill="#db9b1c"/><path d="M368.9,327.9l-3.3-1.9l1.2-.7l3.3,1.9-1.2.7Z" fill="#c3cfdb"/><path d="M370.1,327.2v4.8l2-1.2v1.2l-3.1,1.8-.1-5.9l1.2-.7Z" fill="#fff"/><path d="M366.8,332l-3.3-1.9l1.4-3.7l3.3,1.9-1.4,3.7Z" fill="#ab7915"/><path d="M363.9,336.7l-3.3-1.9l1.5-3.9l3.3,2-1.5,3.8Z" fill="#98a1aa"/><path d="M366.1,331.6l-3.3-1.9c-.1-.3-.2-.5-.4-.8l3.3,1.9c.2.3.3.5.4.8Z" fill="#855e11"/><path d="M366.1,331.6l-3.3-1.9c-.1-.3-.2-.5-.4-.8l3.3,1.9c.2.3.3.5.4.8Z" fill="#855e11"/><path d="M366.1,331.6l-3.3-1.9c.1-.5.2-.8.4-1.2l3.3,1.9c-.2.4-.2.7-.4,1.2Z" fill="#848c93"/><path d="M366.5,330.4l-3.3-1.9.4-1.3l3.3,1.9-.4,1.3Z" fill="#929ba3"/><path d="M366.9,329.1l-3.3-1.9l1.3-.8l3.3,1.9-1.3.8Z" fill="#c3cfdb"/><path d="M366.1,331.6l-3.3-1.9c-.1-.3-.2-.5-.4-.8l3.3,1.9c.2.3.3.5.4.8Z" fill="#855e11"/><path d="M365.7,330.8l-3.3-1.9-.5-.8l3.4,1.9.4.8Z" fill="#805a10"/><path d="M363.9,330.8l-3.3-1.9l1.3-.8l3.4,1.9-1.4.8Z" fill="#c3cfdb"/><path d="M365.4,332.9l-3.3-2-1.5-2l3.3,1.9l1.5,2.1Z" fill="#72797f"/><path d="M368.2,328.3l-1.4,3.7l1.5,2.2-1.3.7-.5-.8c-.2-.3-.3-.5-.4-.8h-.1c-.1.5-.2.8-.4,1.3l-.4,1.4-1.3.7l1.5-3.8-1.5-2.1l1.4-.8.4.8c.2.3.3.5.4.8.2-.5.2-.8.4-1.2l.4-1.3l1.3-.8Z" fill="#fff"/><path d="M377.7,313.8c1.8-1,3.4-.2,3.4,1.9v15.2c0,2.1-1.5,4.7-3.3,5.8l-13.2,7.6c-1.9,1-3.4.2-3.4-1.9v-15.2c0-2.1,1.5-4.7,3.3-5.8l13.2-7.6Zm-.5,15.2l1.2-.6-.3-5.7-1.5.8-.6,2.3c-.2.8-.3,1.6-.5,2.4-.1-.6-.3-1.3-.4-1.8l-.5-1.7-1.6.9-.3,6.1l1.1-.7.1-2.3c0-.7,0-1.6.1-2.4.1.6.3,1.4.4,2l.6,1.9.9-.5.6-2.6c.2-.8.4-1.8.6-2.7c0,.9,0,1.7,0,2.4l.1,2.2ZM367,335l1.3-.8-1.5-2.1l1.4-3.8-1.3.8-.4,1.3c-.2.4-.3.8-.4,1.2-.1-.2-.2-.5-.4-.7l-.4-.9-1.4.8l1.5,2.1-1.5,3.8l1.3-.7.4-1.3c.2-.5.3-.9.4-1.3h.1c.1.2.2.5.4.8l.5.8Zm5.2-3v-1.2l-2.1,1.2v-4.7l-1.1.6v5.9l3.2-1.8Z" clip-rule="evenodd" fill="#ffb420" fill-rule="evenodd"/><path d="M378.1,322.6l.3,5.8-1.2.6-.1-2.2c0-.7,0-1.5,0-2.4-.2.9-.4,1.8-.6,2.6l-.6,2.7-.9.5-.5-1.9c-.2-.6-.4-1.4-.5-2.1-.1.8-.1,1.8-.1,2.5l-.1,2.3-1.1.6.3-6l1.6-.9.5,1.6c.1.6.3,1.3.4,1.9.2-.8.3-1.7.5-2.4l.6-2.3l1.5-.9Z" fill="#fff"/><path d="M376.8,311.6l3.3,2c-.6-.4-1.5-.3-2.4.2l-3.3-1.9c.9-.6,1.7-.6,2.4-.3Z" fill="#e58b0a"/><path d="M377.7,313.8l-3.3-1.9c.133-.133.267-.233.4-.3l3.4,2c-.2.067-.367.133-.5.2v0Z" fill="#e58b0a"/><path d="M378.2,313.6l-3.4-2c.133,0,.267-.033.4-.1l3.4,1.9c-.133.067-.267.133-.4.2v0Z" fill="#e58b0a"/><path d="M378.6,313.4l-3.4-1.9c.133,0,.233-.033.3-.1l3.4,2c-.133,0-.233,0-.3,0Z" fill="#e58b0a"/><path d="M378.9,313.4l-3.4-2c.133,0,.233,0,.3,0l3.3,2c-.067,0-.133,0-.2,0v0Z" fill="#e58b0a"/><path d="M379.1,313.4l-3.3-2c.067,0,.133,0,.2,0l3.3,2c-.067,0-.133,0-.2,0Z" fill="#e58b0a"/><path d="M379.3,313.4l-3.3-2c.067,0,.133,0,.2,0l3.3,2c-.067,0-.133,0-.2,0Z" fill="#e58b0a"/><path d="M379.5,313.4l-3.3-2c.067.067.133.1.2.1l3.3,1.9c-.067,0-.133,0-.2,0Z" fill="#e58b0a"/><path d="M379.7,313.4l-3.3-1.9c.067,0,.133.033.2.1l3.3,1.9c-.067,0-.133-.033-.2-.1Z" fill="#e58b0a"/><path d="M379.9,313.5l-3.3-1.9c.067,0,.1,0,.1,0l3.4,2c-.067-.067-.133-.1-.2-.1Z" fill="#e58b0a"/><path d="M380.1,313.6l-3.4-2c0,0,.033,0,.1,0l3.3,2v0Z" fill="#e58b0a"/><path d="M361.2,342.4l-3.3-2-.1-15.1l3.4,1.9v15.2Z" fill="#e58b0a"/><path d="M364.5,321.4l-3.3-1.9l13.2-7.6l3.3,1.9-13.2,7.6Z" fill="#e58b0a"/><path d="M361.2,327.2l-3.4-1.9c0-2.1,1.5-4.7,3.4-5.8l3.3,1.9c-1.8,1.1-3.3,3.7-3.3,5.8Z" fill="#e58b0a"/><path d="M361.2,327.2l-3.4-1.9c0-.2.033-.433.1-.7l3.3,2c0,.2,0,.4,0,.6v0Z" fill="#e58b0a"/><path d="M361.2,326.6l-3.3-2c0-.133.033-.267.1-.4l3.3,1.9c-.067.133-.1.3-.1.5Z" fill="#e58b0a"/><path d="M361.3,326.1l-3.3-1.9c0-.133,0-.267,0-.4l3.4,1.9c-.067.133-.1.267-.1.4v0Z" fill="#e58b0a"/><path d="M361.4,325.7l-3.4-1.9c.067-.133.1-.267.1-.4l3.4,2c-.067.067-.1.167-.1.3v0Z" fill="#e58b0a"/><path d="M361.5,325.4l-3.4-2c.067-.067.133-.167.2-.3l3.3,2c-.067.067-.1.167-.1.3Z" fill="#e58b0a"/><path d="M361.6,325.1l-3.3-2c0-.067.033-.167.1-.3l3.3,2c-.067.067-.1.167-.1.3Z" fill="#e58b0a"/><path d="M361.7,324.8l-3.3-2c0-.067.033-.167.1-.3l3.3,2c0,.067-.033.167-.1.3Z" fill="#e58b0a"/><path d="M361.8,324.5l-3.3-2c.067-.067.133-.167.2-.3l3.3,2c-.067.067-.133.167-.2.3Z" fill="#e58b0a"/><path d="M362,324.2l-3.3-2c0-.067.033-.133.1-.2l3.3,1.9c0,.067-.033.167-.1.3Z" fill="#e58b0a"/><path d="M362.1,323.9l-3.3-1.9c.067-.133.133-.233.2-.3l3.3,1.9c-.067.133-.133.233-.2.3Z" fill="#e58b0a"/><path d="M362.3,323.6l-3.3-1.9c.067-.133.133-.233.2-.3l3.3,1.9c-.067.133-.133.233-.2.3Z" fill="#e58b0a"/><path d="M362.5,323.3l-3.3-1.9c.067-.133.133-.233.2-.3l3.3,1.9c-.067.133-.133.233-.2.3Z" fill="#e58b0a"/><path d="M362.7,323l-3.3-1.9c.067-.133.167-.233.3-.3l3.3,1.9c-.067.133-.167.233-.3.3Z" fill="#e58b0a"/><path d="M363,322.7l-3.3-1.9c.133-.133.267-.267.4-.4l3.3,1.9c-.133.133-.267.267-.4.4Z" fill="#e58b0a"/><path d="M363.4,322.3l-3.3-1.9c.333-.4.7-.7,1.1-.9l3.3,1.9c-.4.267-.767.567-1.1.9Z" fill="#e58b0a"/><path d="M382.9,366.3c0,2.1-1.5,4.7-3.4,5.8l-13.2,7.6c-1.8,1-3.3.2-3.3-1.9v-7.3l-.6-.3.6-1.6-.1-3.6-.5-.7.5-.4v-1.3c0-2.1,1.5-4.7,3.4-5.8l13.2-7.6c1.8-1.1,3.3-.2,3.3,1.9l.1,15.2Z" fill="#ff66a8"/><path d="M380.1,348.9c-.2.067-.4.167-.6.3l-13.2,7.6c-.467.267-.9.633-1.3,1.1-.4.4-.767.867-1.1,1.4-.267.533-.5,1.067-.7,1.6c0,.067,0,.1,0,.1-.2.533-.3,1.067-.3,1.6l.1,15.2c0,1,.4,1.8,1,2.1l-3.4-1.9c-.6-.4-.9-1.1-.9-2.2l-.1-15.1c0-.2.033-.433.1-.7c0-.133,0-.267,0-.4.067-.133.1-.267.1-.4c0-.067.033-.133.1-.2c0-.067,0-.133,0-.2.067-.067.1-.167.1-.3.067-.067.133-.167.2-.3c0-.067.033-.167.1-.3.067-.067.1-.167.1-.3.067-.067.133-.133.2-.2.067-.133.133-.233.2-.3.067-.133.133-.233.2-.3.067-.133.133-.233.2-.3.067-.133.167-.233.3-.3c0-.067.033-.133.1-.2.067,0,.1-.033.1-.1.067-.067.1-.1.1-.1.4-.4.767-.7,1.1-.9l13.3-7.6c.133-.133.267-.233.4-.3.067,0,.133,0,.2,0c0,0,.033-.033.1-.1c0,0,.033,0,.1,0c.133,0,.233-.033.3-.1.067,0,.1,0,.1,0c.067,0,.1,0,.1,0s.033,0,.1,0s.133,0,.2,0s.133,0,.2,0c0,.067,0,.1,0,.1.067,0,.133,0,.2,0s.1,0,.1,0c.067.067.133.1.2.1l3.4,2c-.2-.133-.367-.2-.5-.2-.2-.067-.4-.067-.6,0-.2,0-.4.033-.6.1c0,0-.033,0-.1,0v0Z" fill="#e83d8f"/><path d="M369.5,363.8c.5-.2.9-.4,1.3-.5l-.3,1.6c-.2,0-.5.1-.9.4-.9.5-1.4,1.5-1.4,2.5c0,1.1.6,1.4,1.4.9.4-.267.733-.533,1-.8l.2,1.3c-.3.4-.9.8-1.5,1.2-1.7,1-2.8.4-2.8-1.5c0-1.8,1-3.9,3-5.1v0Z" fill="#fff"/><path d="M373.7,361.4c.6-.3,1.2-.5,1.5-.5l-.3,1.5c-.2,0-.7,0-1.1.3-.4.2-.7.6-.7.9s.2.3.9.2c1-.2,1.4.1,1.5,1c0,1.2-.8,2.5-2.4,3.4-.7.4-1.3.5-1.7.5l.3-1.5c.3,0,.9-.1,1.4-.4s.7-.6.7-.9-.1-.4-.7-.3c-1.2.3-1.6-.2-1.6-.9c0-1.2.9-2.5,2.2-3.3v0Z" fill="#fff"/><path d="M378.4,358.7c.7-.4,1.2-.5,1.6-.5l-.3,1.4c-.3,0-.7.1-1.2.4-.4.2-.6.5-.6.8s.2.4.8.2c1.1-.1,1.5.2,1.5,1.1c0,1.1-.8,2.4-2.3,3.3-.7.4-1.3.6-1.7.6l.2-1.6c.4.1,1,0,1.5-.3s.7-.6.7-.9c0-.4-.2-.4-.8-.3-1.1.2-1.5-.2-1.5-1c0-1.1.8-2.5,2.1-3.2Z" fill="#fff"/><path d="M440.4,277.2l27.8-16.4c.6-.4,1.2-.1,1.2.7v2.7L439.2,282v-2.7c0-.8.5-1.7,1.2-2.1Z" fill="#bbd2ff"/><path d="M439.2,279.3v2.7l30.2-17.8.3,20.3c0,.8-.6,1.7-1.2,2.1L440.7,303c-.7.4-1.2.1-1.3-.7l-.2-23Z" fill="#d7e9ff"/><path d="M463.8,270.6v1.8l-16.9,9.8v-1.8l16.9-9.8Z" fill="#aecfff"/><path d="M463.8,274.4v1.8L446.9,286v-1.8l16.9-9.8Z" fill="#aecfff"/><path d="M463.8,279.4v1.8L446.9,291v-1.8l16.9-9.8Z" fill="#aecfff"/><path d="M463.8,283.2v1.8l-16.9,9.8v-1.8l16.9-9.8Z" fill="#aecfff"/><path d="M440.4,310.9l27.8-16.4c.7-.3,1.2,0,1.2.7v2.7l-30.2,17.8v-2.7c0-.7.5-1.7,1.2-2.1v0Z" fill="#bbd2ff"/><path d="M439.2,313v2.7l30.2-17.8.3,20.4c0,.7-.5,1.7-1.2,2.1l-27.8,16.3c-.7.4-1.2.1-1.2-.7l-.3-23Z" fill="#d7e9ff"/><path d="M463.8,304.3v1.8l-16.9,9.8v-1.8l16.9-9.8Z" fill="#aecfff"/><path d="M463.8,308.1v1.8l-16.9,9.8v-1.8l16.9-9.8Z" fill="#aecfff"/><path d="M463.8,313.2v1.8l-16.9,9.8v-1.8l16.9-9.8Z" fill="#aecfff"/><path d="M463.8,317v1.8l-16.9,9.8v-1.8l16.9-9.8Z" fill="#aecfff"/><g id="eVNB9a12wKs279" transform="matrix(0 0 0 0 533.049988 309.050003)"><g opacity="0.8"><path d="M566.6,309.1l-.2,44.9-23.7-13.7.1-44.9l23.8,13.7Z" opacity="0.8" fill="#709dda"/><path d="M535.8,306.1l-.1,16.1-37.5-21.7v-16.1l37.6,21.7Z" opacity="0.8" fill="#709dda"/><path d="M571.2,361l-76.4-44.2.1-54.3l76.4,44.1-.1,54.4Zm-28.4-20.6l23.7,13.7.1-44.9-23.7-13.7-.1,44.9Zm-44.6-39.8l37.6,21.7.1-16.2-37.6-21.7-.1,16.2Zm0-20.4l37.6,21.7v-10.4l-37.5-21.7-.1,10.4Zm-.1,34.4l37.6,21.7v-10.1l-37.6-21.7v10.1Z" opacity="0.8" clip-rule="evenodd" fill="#c8dded" fill-rule="evenodd"/><path d="M535.7,326.2v10.1l-37.6-21.7.1-10.1l37.5,21.7Z" opacity="0.8" fill="#709dda"/><path d="M535.8,291.4v10.4l-37.6-21.7.1-10.4l37.5,21.7Z" opacity="0.8" fill="#709dda"/><path d="M571.3,301.2v5.4l-76.4-44.1v-5.4l76.4,44.1Z" opacity="0.8" fill="#709dda"/></g><g><path d="M568.9,303.7c0,.9-.7,1.3-1.5.8s-1.4-1.6-1.4-2.5.7-1.2,1.4-.8c.8.5,1.5,1.6,1.5,2.5Z" fill="#ff66a8"/><path d="M565.3,301.6c0,.9-.7,1.3-1.5.8-.8-.4-1.4-1.5-1.4-2.4c0-1,.6-1.3,1.4-.9.8.5,1.5,1.6,1.5,2.5Z" fill="#4267c5"/><path d="M561.6,299.5c0,.9-.6,1.3-1.4.8-.8-.4-1.4-1.5-1.4-2.4s.6-1.3,1.4-.9c.8.5,1.4,1.6,1.4,2.5Z" fill="#ffb420"/><path d="M502.2,266.4v.9l-4.7-2.7v-.9l4.7,2.7Z" fill="#4267c5"/><path d="M502.2,264.8v.8l-4.7-2.7v-.8l4.7,2.7Z" fill="#4267c5"/><path d="M502.2,263.1v.9l-4.7-2.7v-.9l4.7,2.7Z" fill="#4267c5"/><path d="M571.3,309.1l-76.5-44.2v-7.8l76.5,44.2v7.8Zm-7.5-6.7c.8.4,1.5.1,1.5-.8s-.7-2-1.4-2.5c-.8-.5-1.5-.1-1.5.8s.7,2,1.4,2.5Zm3.7,2.1c.7.4,1.4.1,1.4-.9c0-.9-.6-2-1.4-2.4-.8-.5-1.5-.1-1.5.8s.7,2,1.5,2.5Zm-7.3-4.2c.8.5,1.5.1,1.5-.8s-.7-2-1.5-2.5c-.7-.4-1.4-.1-1.4.8s.6,2,1.4,2.5Zm-62.7-39.1l4.7,2.7v-.8l-4.7-2.7v.8Zm0,3.3l4.7,2.7v-.9l-4.7-2.7v.9Zm0-1.6l4.7,2.7v-.9l-4.6-2.7-.1.9Z" clip-rule="evenodd" fill="#85a9ff" fill-rule="evenodd"/></g></g><g id="eVNB9a12wKs295" transform="matrix(0 0 0 0 512.699982 317.949997)"><g opacity="0.8"><path d="M539.7,318l-.1,36.2-19.1-11l.1-36.2l19.1,11Z" opacity="0.8" fill="#709dda"/><path d="M514.9,315.5l-.1,13.1-30.3-17.5.1-13.1l30.3,17.5Z" opacity="0.8" fill="#709dda"/><path d="M543.4,359.8l-61.6-35.6.1-43.8L543.6,316l-.2,43.8Zm-23-16.6l19.1,11l.1-36.2-19.1-11.1-.1,36.3Zm-35.9-32l30.2,17.4.1-13-30.3-17.5v13.1Zm0-16.5l30.3,17.5.1-8.4-30.3-17.5-.1,8.4Zm-.1,27.8L514.7,340v-8.1l-30.3-17.5v8.1Z" opacity="0.8" clip-rule="evenodd" fill="#c8dded" fill-rule="evenodd"/><path d="M514.8,331.8v8.1l-30.3-17.5v-8.1l30.3,17.5Z" opacity="0.8" fill="#709dda"/><path d="M514.9,303.7v8.4l-30.3-17.5v-8.4l30.3,17.5Z" opacity="0.8" fill="#709dda"/><path d="M543.6,311.7v4.3l-61.7-35.6v-4.3l61.7,35.6Z" opacity="0.8" fill="#709dda"/></g><g><path d="M541.6,313.6c0,.8-.6,1.1-1.2.7s-1.1-1.3-1.1-2s.5-1,1.1-.7c.6.4,1.2,1.3,1.2,2Z" fill="#ff66a8"/><path d="M538.7,312c0,.7-.6,1-1.2.6s-1.2-1.2-1.2-2c0-.7.6-1,1.2-.6.6.3,1.2,1.2,1.2,2Z" fill="#4267c5"/><path d="M535.7,310.3c0,.7-.5,1-1.1.6-.7-.3-1.2-1.2-1.2-2c0-.7.5-1,1.2-.6.6.3,1.1,1.2,1.1,2Z" fill="#ffb420"/><path d="M487.8,283.6v.7l-3.8-2.2v-.7l3.8,2.2Z" fill="#4267c5"/><path d="M487.8,282.2v.7l-3.8-2.1v-.7l3.8,2.1Z" fill="#4267c5"/><path d="M487.8,280.9v.7l-3.8-2.2v-.7l3.8,2.2Z" fill="#4267c5"/><path d="M543.5,318l-61.7-35.6v-6.3l61.7,35.6v6.3Zm-6-5.4c.6.4,1.2.1,1.2-.7c0-.7-.5-1.6-1.2-2-.6-.3-1.1,0-1.1.7s.5,1.6,1.1,2Zm2.9,1.7c.7.3,1.2,0,1.2-.7s-.5-1.6-1.2-2c-.6-.3-1.1-.1-1.1.7c0,.7.5,1.6,1.1,2Zm-5.8-3.4c.6.4,1.1.1,1.1-.7.1-.7-.5-1.6-1.1-1.9-.6-.4-1.2-.1-1.2.6s.6,1.6,1.2,2v0ZM484,279.4l3.8,2.2v-.7l-3.8-2.2v.7Zm0,2.7l3.8,2.1v-.7l-3.8-2.1v.7Zm0-1.4l3.8,2.2v-.7L484,280v.7Z" clip-rule="evenodd" fill="#7392dc" fill-rule="evenodd"/></g></g><path d="M512.4,383.9c7.5,4.3,7.5,11.4-.1,15.8-7.5,4.3-19.8,4.3-27.3,0-7.5-4.4-7.4-11.5.1-15.8c7.6-4.4,19.8-4.4,27.3,0Z" opacity="0.1"/><path d="M497,387.9c.1,0,5.7-.2,4.4,1.7-.8,1.3-1.9,1.5-2.7,1.5s-2.4-.4-2.7-.2c-.4.2-2.3,1.5-3.3.2-.3-.2-.4-.9-.3-1.4.2-.4,4-1.9,4.6-1.8Z" fill="#5bb0ff"/><path d="M501.4,389.6c-.8,1.3-1.9,1.5-2.7,1.5s-2.4-.4-2.7-.2c-.4.2-2.3,1.5-3.3.2-.2-.1-.3-.4-.3-.7.7,1.1,2.6.8,3.1.5.6-.4,1.4-.6,2.1-.5.8.2,2.3,0,3.1-.7.5-.5.5-1,.4-1.3.5.3.7.7.3,1.2Z" fill="#3d93ff"/><path d="M505,391.5c3.9-.6,8.1.1,6.6,2.1-1,1.3-2.4,1.6-3.5,1.6s-3-.5-3.5-.3c-.4.2-2.8,1.5-4.2.2-.3-.3-.7-1.4-.5-1.9s4.3-1.6,5.1-1.7v0Z" fill="#5bb0ff"/><path d="M500.1,349.6c.267,4.467.633,9.1,1.1,13.9.7,7.2-3,19.7-4.5,25.6-.6,2.4-4.4,1.6-4.4.7-.1-3-.2-1.7.4-9.7.7-9,1.6-8.2,2.2-10.9.333-1.533-.267-4.567-1.8-9.1-2.067-5.333-2.1-9.967-.1-13.9c1.533,1.4,3.9,2.533,7.1,3.4v0Z" fill="#223a7a"/><path d="M507.5,351.4c1,5.4,1.733,10.5,2.2,15.3.7,7.3-3.9,20.3-4.8,26.3-.3,1.8-5.1,1.7-5.2.4-.4-3.3-.1-4.6.5-9.8.9-8.2,1.8-7.9,2.3-10.6.333-1.733-.667-5.167-3-10.3-3.133-4.533-4.133-8.9-3-13.1c2.133,1.133,5.8,1.733,11,1.8v0Z" fill="#2c4481"/><path d="M511.6,393.6c-1,1.3-2.4,1.6-3.5,1.6s-3-.5-3.5-.3c-.4.2-2.8,1.5-4.2.2-.1-.2-.4-.6-.4-.9.9,1.1,3.4,1,4,.6.8-.4,1.8-.6,2.8-.4.9.2,2.9,0,3.9-.7.6-.5.7-1.4.6-1.7.6.3.7,1,.3,1.6v0Z" fill="#3d93ff"/><path d="M509.7,366.7c.7,7.3-3.9,20.3-4.8,26.3-.1.6-.7,1-1.4,1.2c1.1-5.8,4.1-20.2,4.5-22.2.5-2.5.7-13.3-2.1-14.1-1.933-.533-4.167-2.433-6.7-5.7.4-.4.833-.867,1.3-1.4c2.2.4,4.533.6,7,.6c1,5.4,1.733,10.5,2.2,15.3v0Z" fill="#223a7a"/><path d="M504.4,308.8c.4-2.333,1.267-3.633,2.6-3.9c2-.5,2.4-.2,1.8.6-.5.8-2,3-1.6,2.9.5,0,1.2-.6,1.3-.2.067.267-.733.933-2.4,2h-2.1l.4-1.4Z" fill="#ffaa83"/><path d="M500.5,318.8c.933-1.333,2-4.4,3.2-9.2.933-.4,2-.2,3.2.6-.933,5.533-1.8,9.1-2.6,10.7-.6,1.267-2.267,3.433-5,6.5-2.933,3.8-5.2,4.833-6.8,3.1-1.533-1.733-1.433-3.3.3-4.7.3-.5,6.1-4.9,7.7-7v0Z" fill="#1cb799"/><path d="M508,350.2c.9,4.1-6.8,3.4-8.5,3-9.9-2-7.7-5-6.2-8.7s.3-4.8.1-6.1c-.2-1.6-1.9-6.4-1.8-10c.1-3.5,4-3.6,10.4-1.3c4.333,1.533,6.2,3.567,5.6,6.1-.7,4.3-.8,11.8.4,17Z" fill="#27e0c0"/><path d="M501.6,322.9c-.467,1.8-.267,3.233.6,4.3.7.9-3.2,1.5-5.5.3.6-2.8.333-4.767-.8-5.9l5.7,1.3Z" fill="#ffaa83"/><path d="M501.8,326.7c-2.267.4-3.567-.333-3.9-2.2l.3.4.5-.8h.1c.667.333,1.533.567,2.6.7.067.733.2,1.367.4,1.9v0Z" fill="#f79f7c"/><path d="M502,312.7c1.533.333,2.467,1.667,2.8,4c.5,3.2.6,7-1,8.3-1.6,1.5-6.7.1-8.7-4-1.9-4.1,1-10.1,6.9-8.3v0Z" fill="#ffaa83"/><path d="M505.5,316.2c.1.5-.4.6-1.4,1-1.5.6-3.3.7-3.5,1.7s1.2,4.1-2.1,5.2c-2.5.8-.2,4.8-2.6,1.3-.8-1.1-3.1-6.2-1.2-10.3.933-2,2.667-3,5.2-3c2.933.067,4.8,1.433,5.6,4.1Z" fill="#3a2528"/><path d="M499,320c.5-.5,1.4-.4,2.1.3s1,1.7.5,2.2-1.4.4-2.1-.3-.9-1.7-.5-2.2Z" fill="#ffaa83"/><path d="M497.5,325.4c.267,2.133.567,4,.9,5.6.4,2.1-.4,6.3-2,8.4-2.067-4.467-2.367-9.133-.9-14h2Z" fill="#3a2528"/><path d="M496.5,324.5c.8,0,1.4.2,1.4.6c0,.3-.6.5-1.4.5-.7,0-1.3-.2-1.3-.6c0-.3.6-.5,1.3-.5Z" fill="#aecfff"/><path id="eVNB9a12wKs329" d="M523.931797,327.35183L522.5,325.3c.2-1.867.433-2.867.7-3c.3-.1.2.9.4,1.3.1.4,1.4-1.9,1.8-2.8.5-.9.9-.7,1.4,1.3.333,1.333-.433,2.733-2.3,4.2l-.568203,1.05183Z" transform="translate(-.336953-1.894715)" fill="#ffaa83"/><path id="eVNB9a12wKs330" d="M514.1,329c1.533-.333,4.267-1.9,8.2-4.7.933.4,1.633,1.3,2.1,2.7-4.133,3.467-7.033,5.567-8.7,6.3-1.267.467-3.9.9-7.9,1.3-4.667.867-7.067.067-7.2-2.4-.133-2.267.933-3.333,3.2-3.2.5-.2,7.7.6,10.3,0v0Z" transform="matrix(.989838-.142198 0.142198 0.989838-41.663406 76.225375)" fill="#1cb799"/><g opacity="0.1"><path d="M384.6,470.8c9.9,5.7,9.9,14.9.1,20.6s-25.7,5.7-35.5,0c-9.9-5.7-9.9-14.9-.2-20.6c9.8-5.6,25.8-5.7,35.6,0v0Z" opacity="0.1"/></g><path d="M374.5,480.5c.1.6,0,1.5-.3,1.8-1.3,1.6-3.5,0-3.9-.3-.5-.2-2.3.3-3.3.3-.9,0-2.3-.3-3.2-1.9-1.5-2.5,5.1-2.2,5.2-2.3.7-.1,5.3,1.8,5.5,2.4Z" fill="#5bb0ff"/><path d="M364.2,478.9c-.1.4-.1,1,.4,1.6c1,.9,2.8,1.1,3.7.9.8-.2,1.8.1,2.5.6.6.4,2.8.7,3.7-.6c0,.4-.2.8-.3.9-1.3,1.6-3.5,0-3.9-.3-.5-.2-2.3.3-3.3.3-.9,0-2.3-.3-3.2-1.9-.4-.7-.2-1.2.4-1.5v0Z" fill="#3d93ff"/><path d="M372.2,425.5c3.733,5.467,4.267,12.133,1.6,20-.9,2.5-2.6,8-2.1,10.7.7,3.2,1.7,2.3,2.5,13c.6,9.4.5,7.3.7,11.1.1,1.1-3.9,2.3-4.5.6-2.7-7.4-6.3-22.9-5.6-31.4.533-5.667.933-11.167,1.2-16.5c2.4-3.4,4.467-5.9,6.2-7.5v0Z" fill="#223a7a"/><path d="M361.9,486.1c.1.6-.3,1.5-.6,1.8-1.6,1.4-3.6-.7-4-1.1-.5-.3-2.4-.1-3.4-.3s-2.4-.8-3.1-2.6c-1.1-2.9,5.7-1.3,5.8-1.3.8-.1,5.2,2.8,5.3,3.5v0Z" fill="#5bb0ff"/><path d="M351.5,482.4c-.2.4-.3,1,.2,1.7.8,1.1,2.7,1.7,3.6,1.7s1.9.4,2.6,1.1c.5.5,2.7,1.3,3.9.1-.2.4-.3.7-.5.9-1.6,1.4-3.6-.7-4-1.1-.5-.3-2.4-.1-3.4-.3s-2.4-.8-3.1-2.6c-.3-.9.1-1.3.7-1.5v0Z" fill="#3d93ff"/><path d="M370.4,433.3c3,3.2,1.8,8.833-3.6,16.9-2.6,5.733-3.833,9.533-3.7,11.4.1,3.3,1.5,3.6.2,14.4-1.2,9.3-.7,9.5-1.4,10.3-.8.8-4.6,0-4.7-1.6-.7-9.2-2.2-22.7-1.3-31.2.6-6.533,1.133-12.467,1.6-17.8c6.6-.333,10.9-1.133,12.9-2.4v0Z" fill="#2c4481"/><path d="M357.5,435.7c1.533-.067,3.2-.233,5-.5-1.6,4.6-4.7,14.3-4.5,22.9.2,8.2.6,21.2.9,28.2-.9-.4-1.7-.9-1.7-1.6-.7-9.2-2.2-22.7-1.3-31.2.6-6.533,1.133-12.467,1.6-17.8v0Z" fill="#223a7a"/><path d="M368.9,411.2c-.333-2.467.7-3.733,3.1-3.8c2.533-.067,3.533,2.533,3,7.8-.067,4.6-.333,7.6-.8,9-.6,1.867-2.533,5.267-5.8,10.2-1.533-.333-2.5-1.033-2.9-2.1c2.6-4.6,4-7.8,4.2-9.6.4-2.8-.9-10.8-.8-11.5v0Z" fill="#e3b1e5"/><path d="M365.5,432.3c.067-.133.133-.3.2-.5.7.6,1.6,1.3,2,.7.6-.9,4.6-4.6,4.8-8.4.3-3.8-.3-5.1-.1-9.5.2-4.1,0-6-2.8-6.1.4-.6.7-1.3,2.4-1.2c2.867.2,3.867,2.833,3,7.9-.067,4.6-.333,7.6-.8,9-.6,1.867-2.533,5.267-5.8,10.2-1.533-.333-2.5-1.033-2.9-2.1v0Z" fill="#1cb799"/><path d="M357.2,437.4c0,0,1.9-10.6,0-22.1-.667-2.6,1.2-4.767,5.6-6.5c6.7-2.7,10.9-2.8,11.1.9.3,3.6-1.4,8.5-1.4,10.2-.2,6.1,1.5,8.7,2.7,12.6c1.1,4.1-18.3,8.8-18,4.9v0Z" fill="#27e0c0"/><path d="M371,401.6c-1.8,2-2.8,4.2-2.3,6.7.8,3.1-6.7,1.5-5.9.4.933-1.267,1.067-2.867.4-4.8l7.8-2.3Z" fill="#ffaa83"/><path d="M363.5,406c1.267-.267,2.233-.6,2.9-1h.1l.7.2.3.1c-.333,2.267-1.833,3.267-4.5,3c.333-.733.5-1.5.5-2.3Z" fill="#f79f7c"/><path d="M370.4,400.1c-2.8,7.3-9.3,6.4-10.5,5.5-2-1.6-.9-4.7.4-8.3.8-2.333,1.467-4.067,2-5.2c5.9-2.6,9.9,3.4,8.1,8Z" fill="#ffaa83"/><path d="M371.6,393.9c3,3.6-.2,8.8-2.2,10.8-1.2,1.1-2.2,1.5-3.2.8-.7-.4-.2-2.8.1-4.2.4-1.6-.8-1.8-1.3-1.4-1.4.9-1.4,1.7-1.9,1.3-.9-.8,1.7-5.2-1.1-6-3.6-1-1.9-3.1.5-3.8c2-.6,6-1.1,9.1,2.5v0Z" fill="#3a2528"/><g id="eVNB9a12wKs347" transform="matrix(.999685 0.025087-.025087 0.999685 9.286484-6.064501)"><path d="M342.4,412.5c-.467-.2-1-.667-1.6-1.4-.8-1.1-.7-1.6-.9-2.5s-.2-1.4.1-1.6c.5-.3,1.5.1,2,1.8.5,1.8,2.2,2,2.4,2.3.3.4-1.6,1.6-2,1.4Z" fill="#ffaa83"/><path d="M342.6,410.8c-.2-.1.2-.8-.4-2.6-.5-1.4.8.1.9.5.067.2.5,1.033,1.3,2.5-.733,0-1.333-.133-1.8-.4Z" fill="#ffaa83"/></g><path id="eVNB9a12wKs350" d="M349.2,421.7c-1.667.267-4.067-2.767-7.2-9.1c1.667-.333,2.467-1.067,2.4-2.2c3.333,4.2,5.167,6.333,5.5,6.4c1.2.1,8.2-7.1,11.3-6.7c2.5.3,2.6,3.2,2.4,4-.9,3.8-10.1,7-14.4,7.6Z" transform="matrix(.984833 0.173503-.173503 0.984833 75.012504-51.484773)" fill="#1cb799"/><g opacity="0.1"><path d="M478,473.6c19.3,11.2,19.4,29.2.3,40.4-19.2,11.1-50.4,11.1-69.7,0-19.3-11.2-19.4-29.2-.2-40.4c19.1-11.1,50.3-11.1,69.6,0Z" opacity="0.1"/></g><g opacity="0.1"><path d="M531.7,477.9c8.9,5.1,9,13.5.1,18.6-8.8,5.2-23.2,5.2-32.1,0-8.9-5.1-9-13.5-.1-18.6c8.8-5.2,23.2-5.2,32.1,0Z" opacity="0.1"/></g><path d="M491.4,406.2v10.4l-.5,7.2v-10.4l.5-7.2Z" fill="#4e6496"/><path d="M479.9,413.5v10.4l-.4,5.5.1-10.4.3-5.5Z" fill="#4e6496"/><path d="M490.9,413.4v10.4l-.4,5.8v-10.4l.4-5.8Z" fill="#4e6496"/><path d="M490.5,419.2v10.4l-11-.2.1-10.4l10.9.2Z" fill="#5c75b0"/><path d="M456.5,421.9v10.4l-7.1-4.5v-10.4l7.1,4.5Z" fill="#598aea"/><path d="M524,417.7v10.4l-7.9,4.6v-10.4l7.9-4.6Z" fill="#598aea"/><path d="M508.5,417.7v10.4l-8.1,4.7v-10.4l8.1-4.7Z" fill="#6782c5"/><path d="M472.7,422.7v10.4l-8.5-5.3v-10.4l8.5,5.3Z" fill="#465a87"/><path d="M508.2,426.9v10.4l-7.8-4.5v-10.4l7.8,4.5Z" fill="#475b89"/><path d="M516.1,422.3v10.4l-7.9,4.6v-10.4l7.9-4.6Z" fill="#6782c5"/><path d="M464.7,427v10.4l-8.2-5.1v-10.4l8.2,5.1Z" fill="#465a87"/><path d="M472.7,422.7v10.4l-8,4.3v-10.4l8-4.3Z" fill="#6783c5"/><path d="M461,431.4l-.1,10.4-11.3.3.1-10.4l11.3-.3Z" fill="#5e77b4"/><path d="M522.6,431.9l-.1,10.4-11.6.3.1-10.4l11.6-.3Z" fill="#5e77b4"/><path d="M504.5,434.6v10.4c0-2.8-1.9-5.5-5.5-7.6-.8-.467-1.633-.867-2.5-1.2-.067,0-.133-.033-.2-.1-.667-.267-1.333-.5-2-.7-.2-.067-.4-.1-.6-.1-.4-.133-.8-.233-1.2-.3-.2-.067-.433-.133-.7-.2-.333-.067-.667-.1-1-.1-.267-.067-.533-.133-.8-.2-.333,0-.633-.033-.9-.1-.333,0-.633,0-.9,0-.333-.067-.633-.1-.9-.1s-.533,0-.8,0c-.4,0-.767,0-1.1,0-.267,0-.5,0-.7,0-.467,0-.9.033-1.3.1-.2,0-.433.033-.7.1-.667.067-1.333.133-2,.2-.267.067-.533.133-.8.2-.333.067-.667.133-1,.2-.2.067-.433.133-.7.2s-.567.167-.9.3c-.2.067-.4.133-.6.2-.467.133-.933.3-1.4.5-.2.067-.367.133-.5.2-.6.267-1.167.567-1.7.9-.267.133-.5.267-.7.4-.267.2-.5.367-.7.5s-.367.267-.5.4c-.2.133-.4.3-.6.5-.067.067-.167.167-.3.3-.267.267-.533.533-.8.8-.067.133-.167.267-.3.4-.133.2-.267.4-.4.6-.067.133-.133.267-.2.4-.133.2-.233.4-.3.6-.067.133-.133.267-.2.4-.067.2-.133.4-.2.6c0,.133-.033.3-.1.5c0,.133,0,.3,0,.5-.067.2-.1.4-.1.6v-10.4c0-.067,0-.133,0-.2.067-.133.1-.267.1-.4c0-.2.033-.367.1-.5c0-.067,0-.1,0-.1c0-.133.033-.267.1-.4c0-.2.033-.4.1-.6c0,0,.033-.033.1-.1c0-.067.033-.167.1-.3.067-.2.167-.4.3-.6c0,0,0-.033,0-.1.067-.067.133-.167.2-.3.133-.2.3-.4.5-.6c0-.067.033-.133.1-.2s.133-.133.2-.2c.2-.267.433-.533.7-.8.067-.067.133-.133.2-.2s.1-.1.1-.1c.2-.2.4-.367.6-.5s.367-.267.5-.4c.2-.133.433-.267.7-.4.133-.133.3-.267.5-.4.067,0,.133-.033.2-.1.533-.333,1.1-.633,1.7-.9.2-.067.4-.133.6-.2.4-.2.867-.367,1.4-.5.067-.067.167-.133.3-.2.067,0,.133,0,.2,0c.333-.133.633-.233.9-.3s.533-.133.8-.2c.333-.067.633-.133.9-.2s.5-.1.7-.1c0,0,.033,0,.1,0c.667-.133,1.367-.233,2.1-.3.067,0,.1-.033.1-.1.2,0,.367,0,.5,0c.4,0,.833-.033,1.3-.1.067,0,.167,0,.3,0s.267,0,.4,0c.4,0,.767,0,1.1,0c.133,0,.233,0,.3,0c.2,0,.367,0,.5,0c.333,0,.633.033.9.1.133,0,.3,0,.5,0c.133,0,.267,0,.4,0c.267.067.567.133.9.2.133,0,.267,0,.4,0s.267.033.4.1c.333,0,.667.033,1,.1.133.067.3.1.5.1.067,0,.133.033.2.1.4.067.8.167,1.2.3.133,0,.3.033.5.1c0,0,.033,0,.1,0c.667.2,1.333.433,2,.7.067,0,.1,0,.1,0c.067.067.133.1.2.1.867.333,1.7.733,2.5,1.2c3.6,2.1,5.4,4.8,5.4,7.6v0Z" fill="#85a9ff"/><path d="M461.5,437.7v10.4l-.6-6.3.1-10.4.5,6.3Z" fill="#435580"/><path d="M461.5,437.7v10.4l-11.6.3v-10.4l11.6-.3Z" fill="#5e77b4"/><path d="M533.9,438v10.4l-11.6.3v-10.4l11.6-.3Z" fill="#598aea"/><path d="M449.9,438v10.4l-10.9.3v-10.4l10.9-.3Z" fill="#598aea"/><path d="M439,438.3v10.4l-.5-6.3v-10.4l.5,6.3Z" fill="#85a9ff"/><path d="M522.3,438.3v10.4l-10.9.2.1-10.4l10.8-.2Z" fill="#5e77b4"/><path d="M511.5,438.5l-.1,10.4-.5-6.3.1-10.4.5,6.3Z" fill="#435580"/><path d="M507.5,442.1v10.4l-8,4.3v-10.4l8-4.3Z" fill="#6783c5"/><path d="M473.8,446.9v10.4l-7.8-4.5.1-10.4l7.7,4.5Z" fill="#475b89"/><path d="M522.3,438.3v10.4c-.133.267-.233.533-.3.8c0,.067-.033.1-.1.1-.2.6-.467,1.2-.8,1.8-.067.067-.1.133-.1.2-.067.133-.133.233-.2.3-.067.2-.167.367-.3.5-.133.2-.267.4-.4.6s-.267.367-.4.5c-.067.133-.133.233-.2.3s-.133.167-.2.3c-.2.2-.4.433-.6.7-.133.133-.267.267-.4.4-.267.267-.5.5-.7.7-.133.133-.233.233-.3.3s-.133.133-.2.2c-.467.4-.933.8-1.4,1.2v-10.4c.533-.4,1.033-.8,1.5-1.2.133-.133.267-.3.4-.5.267-.2.5-.433.7-.7.133-.133.267-.267.4-.4.267-.267.467-.5.6-.7s.3-.4.5-.6c.133-.133.233-.3.3-.5.133-.2.267-.4.4-.6.133-.133.267-.3.4-.5.067-.133.133-.267.2-.4.333-.667.633-1.3.9-1.9.067-.267.167-.567.3-.9v0Z" fill="#85a9ff"/><path d="M515.7,447.2v10.4l-8.2-5.1v-10.4l8.2,5.1Z" fill="#465a87"/><path d="M457.2,447.6l-.1,10.4c-3.8-2.9-6.2-6.2-7.2-9.6v-10.4c1,3.4,3.4,6.7,7.3,9.6v0Z" fill="#85a9ff"/><path d="M466.1,442.4l-.1,10.4-8.9,5.2.1-10.4l8.9-5.2Z" fill="#6782c5"/><path d="M493.6,450.2l-.1,10.4-10.9-.2v-10.4l11,.2Z" fill="#5c75b0"/><path d="M508,451.7v10.4l-8.5-5.3v-10.4l8.5,5.3Z" fill="#465a87"/><path d="M473.8,446.9v10.4l-8.7,5v-10.4l8.7-5Z" fill="#6782c5"/><path d="M493.6,450.2l-.1,10.4-.3,5.2v-10.4l.4-5.2Z" fill="#4e6496"/><path d="M508,462.1c-1.2.467-2.467.933-3.8,1.4-.067,0-.167.033-.3.1-.667.2-1.367.4-2.1.6-.333.067-.7.167-1.1.3-1.2.267-2.4.533-3.6.8-1.267.2-2.567.367-3.9.5v-10.4c1.333-.133,2.633-.3,3.9-.5c1.267-.267,2.5-.533,3.7-.8.333-.133.667-.233,1-.3.8-.2,1.6-.433,2.4-.7c1.333-.467,2.6-.933,3.8-1.4v10.4Z" fill="#85a9ff"/><path d="M482.3,455.7l-.1,10.4c-.4-.067-.8-.1-1.2-.1-.867-.067-1.767-.167-2.7-.3-.2,0-.433-.033-.7-.1-.067,0-.133,0-.2,0-1.2-.2-2.4-.4-3.6-.6-.067-.067-.133-.1-.2-.1-.5-.1-.9-.2-1.4-.3-.8-.2-1.5-.4-2.2-.6-.133,0-.267-.033-.4-.1-1-.3-1.9-.6-2.8-.9-.4-.2-.9-.3-1.3-.5-.133-.067-.267-.133-.4-.2v-10.4c.6.3,1.2.5,1.8.7.9.3,1.8.6,2.7.9.867.267,1.733.5,2.6.7.467.067.933.167,1.4.3c1.333.267,2.667.5,4,.7.267.067.533.1.8.1c1.267.2,2.567.333,3.9.4v0Z" fill="#85a9ff"/><path d="M482.6,450v10.4l-.4,5.7.1-10.4.3-5.7Z" fill="#4e6496"/><path d="M522.9,451.6l-.1,10.4-8,4.3.1-10.4l8-4.3Z" fill="#85a9ff"/><path d="M514.9,455.9l-.1,10.4-6.8-4.2v-10.4l6.9,4.2Z" fill="#598aea"/><path d="M465.1,451.9v10.4l-7.2,4.2.1-10.4l7.1-4.2Z" fill="#598aea"/><path d="M458,456.1l-.1,10.4-7.7-4.5v-10.4l7.8,4.5Z" fill="#85a9ff"/><path d="M515.7,447.2l7.2,4.4-8,4.3-6.9-4.2c-4.5,1.9-9.5,3.1-14.8,3.7l-.5,7.8-11-.2.6-7.3c-6.1-.4-12-1.6-17.2-3.8l-7.1,4.2-7.8-4.5l7-4c-3.9-2.9-6.3-6.2-7.3-9.6l-10.9.3-.5-6.3l11.2-.3c.8-3.5,3-6.9,6.8-9.8l-7.1-4.5l8-4.3l6.8,4.3c4.8-2,10.2-3.3,15.7-3.9l.6-7.5l10.9.2-.5,7.2c6.3.5,12.4,1.9,17.6,4.3l7.8-4.5l7.7,4.5-7.9,4.6c3.6,2.9,5.7,6.2,6.5,9.6l10.8-.2.5,6.3-11.6.3c-1,3.1-3.1,6.2-6.6,8.9v0Zm-16.5-5.1c7.1-4.2,7.1-10.9-.1-15.1s-18.9-4.2-26,0c-7.2,4.2-7.1,10.9.1,15c7.2,4.2,18.8,4.2,26,.1Z" clip-rule="evenodd" fill="#fff" fill-rule="evenodd"/><path d="M492.7,463.2l-.1,10.4-10.9-.2v-10.4l11,.2Z" fill="#85a9ff"/><path d="M493.2,455.4v10.4l-.6,7.8.1-10.4.5-7.8Z" fill="#598aea"/><g><path d="M444.2,449.8v10.4l-.5,7.2v-10.4l.5-7.2Z" fill="#4e6496"/><path d="M432.8,457.1v10.4l-.4,5.4v-10.4l.4-5.4Z" fill="#4e6496"/><path d="M443.7,457v10.4l-.4,5.8v-10.4l.4-5.8Z" fill="#4e6496"/><path d="M443.3,462.8v10.4l-10.9-.3v-10.4l10.9.3Z" fill="#5c75b0"/><path d="M409.3,465.4v10.4l-7.1-4.4v-10.4l7.1,4.4Z" fill="#598aea"/><path d="M476.9,461.2v10.4l-8,4.6.1-10.4l7.9-4.6Z" fill="#598aea"/><path d="M461.4,461.3v10.4l-8.1,4.7v-10.4l8.1-4.7Z" fill="#6782c5"/><path d="M425.5,466.2v10.4l-8.5-5.3.1-10.3l8.4,5.2Z" fill="#465a87"/><path d="M461.1,470.4l-.1,10.4-7.7-4.4v-10.4l7.8,4.4Z" fill="#475b89"/><path d="M469,465.8l-.1,10.4-7.9,4.6.1-10.4l7.9-4.6Z" fill="#6782c5"/><path d="M417.5,470.5v10.4l-8.2-5.1v-10.4l8.2,5.1Z" fill="#465a87"/><path d="M425.5,466.2v10.4l-8,4.3v-10.4l8-4.3Z" fill="#6783c5"/><path d="M413.8,475v10.4l-11.3.3v-10.4l11.3-.3Z" fill="#5e77b4"/><path d="M475.4,475.5v10.4l-11.6.3v-10.4l11.6-.3Z" fill="#5e77b4"/><path d="M457.3,478.1v10.4c0-2.7-1.8-5.4-5.4-7.5-.8-.467-1.633-.867-2.5-1.2-.067-.067-.167-.1-.3-.1-.6-.267-1.267-.5-2-.7-.2-.067-.4-.133-.6-.2-.333-.067-.7-.167-1.1-.3-.267,0-.533-.033-.8-.1-.333-.067-.667-.133-1-.2-.267,0-.533-.033-.8-.1s-.567-.1-.9-.1c-.267,0-.533-.033-.8-.1-.333,0-.667,0-1,0-.267,0-.533,0-.8,0-.333-.067-.667-.067-1,0-.267,0-.533,0-.8,0-.4,0-.833.033-1.3.1-.2,0-.4,0-.6,0-.733.067-1.433.167-2.1.3-.267.067-.5.133-.7.2-.333.067-.667.133-1,.2-.267.067-.5.133-.7.2-.333.067-.667.133-1,.2-.133.067-.3.133-.5.2-.467.2-.933.4-1.4.6-.2.067-.4.133-.6.2-.6.267-1.167.567-1.7.9-.2.1-.5.3-.7.4-.2.133-.433.3-.7.5-.133.133-.3.233-.5.3-.2.2-.367.367-.5.5s-.233.233-.3.3c-.333.267-.6.567-.8.9-.133.067-.233.167-.3.3-.2.2-.367.433-.5.7-.067.133-.133.267-.2.4-.067.2-.167.367-.3.5-.067.2-.1.367-.1.5-.067.2-.133.367-.2.5-.067.2-.1.367-.1.5-.067.2-.1.4-.1.6s0,.367,0,.5v-10.4c0,0,0-.033,0-.1c0-.133,0-.267,0-.4.067-.2.1-.4.1-.6c0,0,0-.033,0-.1.067-.133.1-.267.1-.4.067-.133.133-.3.2-.5c0-.067,0-.1,0-.1.067-.133.133-.233.2-.3.067-.2.133-.4.2-.6.067-.067.1-.133.1-.2.067-.067.133-.133.2-.2.133-.267.267-.5.4-.7.067-.067.1-.1.1-.1.067-.067.133-.133.2-.2.267-.333.533-.633.8-.9.067-.067.133-.133.2-.2c0,0,.033-.033.1-.1.2-.133.4-.267.6-.4.133-.133.3-.267.5-.4.2-.2.4-.367.6-.5s.367-.233.5-.3c.067-.067.133-.1.2-.1.6-.333,1.2-.633,1.8-.9.133-.067.3-.133.5-.2.467-.2.933-.4,1.4-.6.133,0,.267-.033.4-.1.067,0,.133-.033.2-.1.267-.067.567-.133.9-.2.2-.067.433-.133.7-.2.333-.067.667-.133,1-.2.2-.067.4-.133.6-.2.067,0,.1,0,.1,0c.733-.133,1.433-.233,2.1-.3.067,0,.133,0,.2,0c.133,0,.3,0,.5,0c.4-.067.8-.1,1.2-.1.133,0,.233,0,.3,0c.133,0,.3,0,.5,0c.333,0,.667,0,1,0c.133,0,.267,0,.4,0s.267,0,.4,0c.333,0,.667,0,1,0c.133,0,.267,0,.4,0c.133.067.267.1.4.1.333,0,.667.033,1,.1.133,0,.267.033.4.1.133,0,.267,0,.4,0c.333.067.667.133,1,.2.133,0,.267.033.4.1.067,0,.167,0,.3,0c.4.133.8.233,1.2.3.133.067.267.1.4.1.067.067.133.1.2.1.667.2,1.3.433,1.9.7.067,0,.1,0,.1,0c.067,0,.133.033.2.1.867.333,1.7.733,2.5,1.2c3.6,2.1,5.4,4.8,5.4,7.5v0Z" fill="#85a9ff"/><path d="M414.3,481.3v10.4l-.5-6.3v-10.4l.5,6.3Z" fill="#435580"/><path d="M414.3,481.3v10.4l-11.6.3v-10.4l11.6-.3Z" fill="#5e77b4"/><path d="M486.7,481.5v10.4l-11.6.3.1-10.4l11.5-.3Z" fill="#598aea"/><path d="M402.7,481.6v10.4l-10.8.3v-10.4l10.8-.3Z" fill="#598aea"/><path d="M391.9,481.9v10.4l-.6-6.4.1-10.4.5,6.4Z" fill="#85a9ff"/><path d="M475.2,481.8l-.1,10.4-10.8.3v-10.4l10.9-.3Z" fill="#5e77b4"/><path d="M464.3,482.1v10.4l-.5-6.3v-10.4l.5,6.3Z" fill="#435580"/><path d="M460.4,485.6l-.1,10.4-7.9,4.3v-10.4l8-4.3Z" fill="#6783c5"/><path d="M426.7,490.4l-.1,10.4-7.7-4.4v-10.4l7.8,4.4Z" fill="#475b89"/><path d="M475.2,481.8l-.1,10.4c-.067.333-.167.633-.3.9c0,0,0,.033,0,.1-.267.6-.567,1.2-.9,1.8c0,.067-.033.133-.1.2c0,.067-.033.167-.1.3-.133.133-.267.3-.4.5-.067.2-.167.4-.3.6-.133.133-.267.3-.4.5-.067.067-.133.167-.2.3-.067.067-.133.133-.2.2-.2.267-.4.5-.6.7s-.367.367-.5.5c-.2.267-.433.5-.7.7-.067.133-.167.233-.3.3-.067.067-.1.1-.1.1-.467.4-.967.8-1.5,1.2l.1-10.4c.467-.333.933-.733,1.4-1.2.133-.133.267-.267.4-.4.267-.2.533-.433.8-.7.133-.133.267-.3.4-.5.2-.2.4-.433.6-.7.133-.133.267-.3.4-.5s.267-.367.4-.5c.133-.2.267-.4.4-.6.067-.2.167-.367.3-.5.067-.2.167-.367.3-.5.333-.6.6-1.2.8-1.8.133-.333.267-.667.4-1v0Z" fill="#85a9ff"/><path d="M468.6,490.7l-.1,10.4-8.2-5.1.1-10.4l8.2,5.1Z" fill="#465a87"/><path d="M410,491.1v10.4c-3.9-2.8-6.3-6.1-7.3-9.5v-10.4c1,3.4,3.5,6.7,7.3,9.5Z" fill="#85a9ff"/><path d="M418.9,486v10.4l-8.9,5.1v-10.4l8.9-5.1Z" fill="#6782c5"/><path d="M446.4,493.8v10.4l-10.9-.3v-10.4l10.9.3Z" fill="#5c75b0"/><path d="M460.9,495.2l-.1,10.4-8.4-5.3v-10.4l8.5,5.3Z" fill="#465a87"/><path d="M426.7,490.4l-.1,10.4-8.7,5.1v-10.4l8.8-5.1Z" fill="#6782c5"/><path d="M446.4,493.8v10.4l-.4,5.2.1-10.4.3-5.2Z" fill="#4e6496"/><path d="M460.8,505.6c-1.2.533-2.467,1-3.8,1.4-.067.067-.133.1-.2.1-.733.2-1.467.4-2.2.6-.333.133-.667.233-1,.3-1.2.333-2.4.6-3.6.8-.067,0-.1,0-.1,0-1.267.267-2.567.467-3.9.6l.1-10.4c1.267-.133,2.567-.333,3.9-.6c1.2-.2,2.4-.467,3.6-.8.4-.1.7-.2,1.1-.3.8-.2,1.6-.433,2.4-.7c1.267-.4,2.533-.867,3.8-1.4l-.1,10.4Z" fill="#85a9ff"/><path d="M435.1,499.2v10.4c-.4,0-.833-.033-1.3-.1-.867-.067-1.733-.133-2.6-.2-.267-.067-.533-.1-.8-.1c0,0-.033,0-.1,0-1.267-.2-2.467-.433-3.6-.7-.133,0-.233,0-.3,0-.5-.1-.9-.3-1.4-.4-.7-.1-1.5-.3-2.2-.5-.133-.067-.267-.133-.4-.2-.933-.267-1.833-.567-2.7-.9-.5-.1-.9-.2-1.3-.4-.2-.067-.367-.133-.5-.2v-10.4c.6.2,1.2.4,1.8.6.9.4,1.8.7,2.7,1c.867.2,1.733.4,2.6.6.467.133.933.267,1.4.4c1.333.267,2.7.5,4.1.7.2,0,.433.033.7.1c1.333.133,2.633.233,3.9.3v0Z" fill="#85a9ff"/><path d="M435.5,493.5v10.4l-.4,5.7v-10.4l.4-5.7Z" fill="#4e6496"/><path d="M475.7,495.2v10.4l-8,4.3v-10.4l8-4.3Z" fill="#85a9ff"/><path d="M467.7,499.5v10.4l-6.9-4.3.1-10.4l6.8,4.3Z" fill="#598aea"/><path d="M417.9,495.5v10.4l-7.1,4.1v-10.4l7.1-4.1Z" fill="#598aea"/><path d="M410.8,499.6v10.4l-7.8-4.4.1-10.4l7.7,4.4Z" fill="#85a9ff"/><path d="M445.5,506.8v10.4l-10.9-.3v-10.4l10.9.3Z" fill="#85a9ff"/><path d="M446.1,499l-.1,10.4-.5,7.8v-10.4l.6-7.8Z" fill="#598aea"/><path d="M468.6,490.7l7.1,4.5-8,4.3-6.8-4.3c-4.5,1.9-9.6,3.2-14.8,3.8l-.6,7.8-10.9-.3.5-7.3c-6-.3-12-1.6-17.2-3.7l-7.1,4.1-7.7-4.4l6.9-4.1c-3.8-2.8-6.3-6.1-7.3-9.5l-10.8.3-.5-6.4l11.1-.2c.8-3.5,3.1-6.9,6.8-9.9l-7.1-4.4l8-4.3l6.9,4.3c4.7-2.1,10.1-3.4,15.7-3.9l.5-7.6l10.9.3-.5,7.2c6.3.5,12.4,1.9,17.7,4.3l7.7-4.5l7.8,4.4-7.9,4.6c3.5,3,5.7,6.3,6.4,9.7l10.8-.3.5,6.3-11.5.3c-1,3.2-3.2,6.3-6.6,8.9v0ZM452,485.6c7.2-4.1,7.1-10.9-.1-15-7.2-4.2-18.8-4.2-26,0-7.1,4.1-7.1,10.8.1,15s18.8,4.2,26,0Z" clip-rule="evenodd" fill="#fff" fill-rule="evenodd"/></g><path d="M504,487.2c6.8,3.5,7.3,5.6,6.4,6.4-.5.4-3.2,1.5-6.3-1-3-2.5-3-1.4-4.7-2.1-1.067-.467-1.233-1.467-.5-3l5.1-.3Z" fill="#5bb0ff"/><path d="M498.7,487.9c.267,0,.433.067.5.2-.467,1-.033,1.667,1.3,2c2,.4,3.1.8,4.4,1.8c1.2.9,2.9,2.3,5.8,1.3-.1.2-.2.3-.3.4-.4.5-3.2,1.5-6.2-1-3.1-2.5-3.1-1.4-4.8-2.1-1.2-.5-.9-1.9-.7-2.6v0Z" fill="#3d93ff"/><path d="M513.6,480.4c6.8,3.5,6.8,6,6.4,6.4-.4.5-3.2,1.5-6.2-1-3.1-2.5-3.1-1.4-4.8-2.1-1.067-.467-1.233-1.467-.5-3l5.1-.3Z" fill="#5bb0ff"/><path d="M508.3,481.1c.267,0,.467.067.6.2-.467,1-.067,1.667,1.2,2c2,.4,3.1.8,4.4,1.8c1.2.9,2.8,2.4,5.7,1.4-.067.133-.1.233-.1.3-.5.5-3.3,1.5-6.3-1-3.1-2.5-3.1-1.4-4.7-2.1-1.3-.5-1-1.9-.8-2.6v0Z" fill="#3d93ff"/><path d="M494,450.7c2.2-.333,3.9-1.133,5.1-2.4c8.267,5.733,12.733,9.533,13.4,11.4c1,2.7,2.4,15.6,2.3,21.1c0,1.8-6.7,3.1-7.1.6-.467-3.067-.867-8.9-1.2-17.5-9.867-3.533-14.033-7.933-12.5-13.2v0Z" fill="#223a7a"/><path d="M495.9,450.3l-1.4,4.3c5.867,4.067,9.233,7.033,10.1,8.9c1.3,2.7,1.4,17.9.8,23.9-.3,3-6.8,2.4-7,.7-.2-2.3-.1-2.1-.2-8.7-.133-4.8-.067-8.633.2-11.5-5.333-3.2-9.5-5.967-12.5-8.3-3.067-2.333-4-5.567-2.8-9.7c3,1.667,7.267,1.8,12.8.4v0Z" fill="#282528"/><path d="M495.9,450.3l-1.4,4.3c5.867,4.067,9.233,7.033,10.1,8.9c1.3,2.7,1.4,17.9.8,23.9-.3,3-6.8,2.4-7,.7-.2-2.3-.1-2.1-.2-8.7-.133-4.8-.067-8.633.2-11.5-5.333-3.2-9.5-5.967-12.5-8.3-3.067-2.333-4-5.567-2.8-9.7c3,1.667,7.267,1.8,12.8.4v0Z" fill="#2c4481"/><g id="eVNB9a12wKs447" transform="matrix(.843928-.536457 0.536457 0.843928-153.089001 338.689987)"><path d="M511.8,437.1c.467-.333,1.2-.533,2.2-.6c1.5-.2,1.9.2,2.8.5s1.5.7,1.3,1.1c-.2.5-2.2,1.2-3.4.9-.7-.2-2.6.9-3,.9-.5,0-.4-2.5.1-2.8v0Z" fill="#ffaa83"/><path d="M493.2,424.1c1.667-2.067,3.3-1.933,4.9.4c1.6,2.2,4.2,11.2,5.2,12c.333.2,3.267.2,8.8,0-.8.867-.667,2.067.4,3.6-7.2,2.333-11.4,2.767-12.6,1.3-3.1-3.9-8.2-13.5-6.7-17.3v0Z" fill="#1cb799"/></g><path d="M511.4,439l.1-.1c1-.6,1.8-.867,2.4-.8.8.2,2,.1,2.4.2s1.1-.1,1.3.2c-.7.4-2,.7-2.9.5-.7-.2-2.6.9-3,.9-.2,0-.3-.4-.3-.9v0Z" fill="#f29c79"/><path d="M499,447.7c.2.4.367.667.5.8-5.867,4.6-11.467,5.567-16.8,2.9-.267-.2-.1-2.133.5-5.8c1.5-10.3-4.3-16.3,0-19.4.3-.2,11.9-5.1,13.3-4.1.8.7,2.5,2.8,2.8,6.1.7,2,.6,5.1-.4,7.3-1.4,3.2-1.3,4.5-1.3,5.8.067.467.1.833.1,1.1.1,1.3.9,4,1.3,5.3v0Z" fill="#ffe9fe"/><path d="M499,447.7c.2.4.367.667.5.8-5.867,4.6-11.467,5.567-16.8,2.9-.267-.2-.1-2.133.5-5.8c1.5-10.3-4.3-16.3,0-19.4.3-.2,11.9-5.1,13.3-4.1.8.7,2.5,2.8,2.8,6.1.7,2,.6,5.1-.4,7.3-1.4,3.2-1.3,4.5-1.3,5.8.067.467.1.833.1,1.1.1,1.3.9,4,1.3,5.3v0Z" fill="#27e0c0"/><path d="M493.9,420.8c-.4,1.867-.4,3.3,0,4.3.6,1.5-1.6,2-2.7,1.6-1.1-.3-2.8-1.1-2.6-2c.2-1,1.2-4.1.6-5.3-.4-.733,1.167-.267,4.7,1.4Z" fill="#f79f7c"/><path d="M495.5,412.1c2.8,2.9,1.3,9.3,0,11.6-1.3,2.2-4.4,0-5.6-.9-1.2-1-3.4-2.2-3.9-4.1-.533-2.267.267-4.467,2.4-6.6c2.867-1.933,5.233-1.933,7.1,0Z" fill="#ffaa83"/><path d="M495.5,413.5c-.267,1.467-1.8,2.433-4.6,2.9-1.2.2-1,3.9-2,2.9-.3-.3-1.3-1-1.4-.5-.5,2.5,3.1,3.3,2.5,5-.9,2.6-8.2,6.1-5.7-8.9.6-3.5,2.8-6,7.9-5.6c4,.3,5.7,3.8,4.3,4.2-.3.1-.1-.1-1,0v0Z" fill="#3a2528"/><path d="M491.8,447.8c.6-.067,1.367.133,2.3.6c1.5.6,1.6,1.2,2.2,2c.6.7,1,1.4.6,1.7s-2.5-.1-3.4-1.1c-.6-.5-2.8-.6-3.2-.8-.4-.3,1-2.4,1.5-2.4Z" fill="#ffaa83"/><path d="M490.5,449.2h.2c1.2,0,2,.2,2.4.6.7.6,1.8,1.2,2.1,1.5s1,.5,1,.8c0,0,0,.033,0,.1-.8-.1-2.1-.5-2.7-1.2-.6-.5-2.8-.6-3.2-.8-.2-.1,0-.5.2-1v0Z" fill="#f29c79"/><path d="M483.4,426.1c.8-.4,2.5-.8,2.8,2c.4,2.9-2.6,13.3-2.1,14.6.133.4,2.933,1.967,8.4,4.7-1.2.267-1.733,1.4-1.6,3.4-7.667-1.8-11.633-3.7-11.9-5.7-.6-5,.7-16.9,4.4-19v0Z" fill="#1cb799"/><path d="M498.4,488.1c-.2-2.3-.1-2.1-.2-8.7-.133-4.8-.067-8.633.2-11.5-5.333-3.2-9.5-5.967-12.5-8.3-2.3-1.8-3-4.2-3.1-6.2c1.6,4.1,11.7,11.1,14.9,12.1c4.1,1.3,2,6.3,2,7.4.1.9-.2,11.9-.3,16.1-.6-.2-.9-.5-1-.9v0Z" fill="#223a7a"/><g id="eVNB9a12wKs460" transform="matrix(0 0 0 0 581.000012 408.340302)"><path d="M520.4,405.6c.5-.4,1-.1,1,.6c0,.6-.5,1.4-1,1.7-.6.4-1.1.1-1.1-.6c0-.6.5-1.4,1.1-1.7Z" fill="#ffb420"/><path d="M517.8,407.1c.5-.4,1-.1,1,.5c0,.7-.5,1.5-1,1.8-.6.3-1.1.1-1.1-.6c0-.6.5-1.4,1.1-1.7Z" fill="#4267c5"/><path d="M567.3,376.9v3.8l-54.9,31.7v-3.8l54.9-31.7Z" opacity="0.8" fill="#709dda"/><path d="M515.2,408.6c.5-.4,1-.1,1,.5c0,.7-.5,1.5-1,1.8-.6.3-1,.1-1-.6c0-.6.4-1.4,1-1.7Z" fill="#ff66a8"/><path d="M512.4,408.6l54.9-31.7.1,5.6-55,31.7v-5.6Zm5.4.9c.6-.4,1-1.2,1-1.8c0-.7-.5-.9-1-.6-.6.3-1,1.1-1,1.8c0,.6.4.9,1,.6Zm-2.6,1.4c.6-.3,1-1.1,1-1.7c0-.7-.4-.9-1-.6s-1,1.1-1,1.7c0,.7.4,1,1,.6Zm5.2-3c.6-.3,1-1.1,1-1.7c0-.7-.4-.9-1-.6s-1,1.1-1,1.8c0,.6.4.9,1,.5Zm45-28v-.6l-3.3,1.9v.6l3.3-1.9Zm0,2.4v-.6l-3.4,1.9v.6l3.4-1.9Zm0-1.1v-.7l-3.4,2l.1.6l3.3-1.9Z" clip-rule="evenodd" fill="#85a9ff" fill-rule="evenodd"/><path d="M565.4,380.4v.7L562,383v-.6l3.4-2Z" fill="#4267c5"/><path d="M565.4,381.6v.6l-3.4,2v-.7l3.4-1.9Z" fill="#4267c5"/><path d="M565.4,379.3v.6l-3.4,1.9v-.6l3.4-1.9Z" fill="#4267c5"/><path d="M564.9,396.5v11.6L538,423.6l-.1-11.6l27-15.5Z" opacity="0.8" fill="#709dda"/><path d="M512.4,412.4l54.9-31.7.1,39.1-54.9,31.7-.1-39.1ZM533,436.6l-.1-32.3-17.1,9.9.1,32.2l17.1-9.8ZM565,408v-11.6L538,412v11.6L565,408Zm0-14.7v-7.5l-27,15.6v7.5l27-15.6Zm.1,24.8l-.1-7.3-27,15.6.1,7.3l27-15.6Z" opacity="0.8" clip-rule="evenodd" fill="#fff" fill-rule="evenodd"/><path d="M564.9,410.9l.1,7.2-27,15.6v-7.2l26.9-15.6Z" opacity="0.8" fill="#709dda"/><path d="M564.9,385.9v7.5l-27,15.6v-7.5l27-15.6Z" opacity="0.8" fill="#709dda"/><path d="M532.9,404.4v32.2l-17,9.9-.1-32.3l17.1-9.8Z" opacity="0.8" fill="#709dda"/></g><g id="eVNB9a12wKs474" transform="matrix(0 0 0 0 581.000012 408.340302)"><path d="M548.9,412.7v26l-13.7,7.9-.1-26l13.8-7.9Z" opacity="0.8" fill="#709dda"/><path d="M574.7,406.3v9.4L553,428.2l-.1-9.4l21.8-12.5Z" opacity="0.8" fill="#709dda"/><path d="M532.3,419.2l44.3-25.6.1,31.5-44.3,25.6-.1-31.5Zm16.6,19.5l-.1-26-13.7,7.9v26l13.8-7.9Zm25.8-23v-9.4L553,418.9v9.3l21.7-12.5Zm0-11.8l-.1-6.1-21.7,12.6v6.1l21.8-12.6Zm0,19.9v-5.8L553,430.5v5.9l21.7-12.6Z" opacity="0.8" clip-rule="evenodd" fill="#fff" fill-rule="evenodd"/><path d="M574.7,417.9v5.9L553,436.3v-5.8l21.7-12.6Z" opacity="0.8" fill="#709dda"/><path d="M574.7,397.8v6l-21.8,12.6v-6.1l21.8-12.5Z" opacity="0.8" fill="#709dda"/><path d="M576.6,390.5v3.1l-44.3,25.6v-3.1l44.3-25.6Z" opacity="0.8" fill="#709dda"/><path d="M532.4,416.1l44.3-25.6v4.5l-44.3,25.6v-4.5Zm4.3.7c.4-.3.8-.9.8-1.5c0-.5-.4-.7-.8-.4-.5.2-.8.9-.8,1.4s.3.7.8.5Zm-2.1,1.2c.5-.3.8-.9.8-1.4c0-.6-.3-.8-.8-.5-.5.2-.8.9-.8,1.4s.3.7.8.5Zm4.2-2.4c.4-.3.8-.9.8-1.5c0-.5-.4-.7-.8-.4-.5.2-.8.9-.8,1.4s.3.7.8.5Zm36.3-22.7v-.5l-2.7,1.6v.5l2.7-1.6Zm0,1.9v-.5l-2.7,1.6v.5l2.7-1.6Zm0-1v-.5l-2.7,1.6v.5l2.7-1.6Z" clip-rule="evenodd" fill="#7392dc" fill-rule="evenodd"/></g><path d="M534.6,416c.4-.2.8,0,.8.5s-.4,1.2-.8,1.5c-.5.2-.8,0-.8-.5c0-.6.3-1.2.8-1.5Z" fill="#ff66a8"/><path d="M536.7,414.8c.4-.2.8,0,.8.5s-.4,1.2-.8,1.4c-.5.3-.8.1-.8-.4c0-.6.3-1.2.8-1.5Z" fill="#4267c5"/><path d="M538.8,413.6c.4-.2.8,0,.8.5s-.4,1.2-.8,1.4c-.5.3-.8.1-.8-.4c0-.6.3-1.2.8-1.5Z" fill="#ffb420"/><path d="M575.1,394.3v.5l-2.7,1.6v-.5l2.7-1.6Z" fill="#4267c5"/><path d="M575.1,393.4v.5l-2.7,1.5v-.5l2.7-1.5Z" fill="#4267c5"/><path d="M575.1,392.4v.5l-2.7,1.6v-.5l2.7-1.6Z" fill="#4267c5"/><g id="eVNB9a12wKs488" transform="matrix(0 0 0 0 464.800003 366.449997)"><path d="M458.8,363.2l-2.7,7l2.9,4-2.5,1.5-.9-1.5c-.4-.6-.6-1-.9-1.5-.2.8-.5,1.5-.8,2.4l-.8,2.5-2.5,1.5l2.8-7.3-2.7-3.9l2.5-1.5.9,1.6c.3.5.5.9.7,1.4.3-.9.5-1.5.7-2.3l.8-2.5l2.5-1.4Z" fill="#9daae2"/><path d="M470.4,356.5l.5,10.8-2.1,1.3-.2-4.2c0-1.3-.1-2.9-.1-4.5-.3,1.6-.7,3.4-1.1,4.9l-1.1,5.1-1.7.9-1.1-3.7c-.3-1.1-.6-2.5-.9-3.8-.1,1.5-.1,3.3-.2,4.7l-.1,4.4-2.1,1.1.6-11.5l3-1.6.9,3.1c.3,1.1.6,2.3.8,3.5h.1c.2-1.4.6-3.1.9-4.5l1-4.3l2.9-1.7Z" fill="#9daae2"/><path d="M475.1,353.8v9l3.9-2.2v2.1l-6.1,3.5v-11.1l2.2-1.3Z" fill="#9daae2"/></g><path d="M505.9,386.2l-2.3-1.3c-.4-.2-.6-.7-.6-1.4l2.2,1.3c0,.7.3,1.2.7,1.4v0Z" fill="#e58b0a"/><path d="M505.9,386.2l-2.3-1.3c-.4-.2-.6-.7-.6-1.4l2.2,1.3c0,.7.3,1.2.7,1.4v0Z" fill="#e58b0a"/><path d="M518.8,376.9c0,1.5-1,3.3-2.3,4l-9,5.2c-1.2.7-2.3.1-2.3-1.3v-5l-.4-.2.4-1v-2.5l-.4-.5.4-.2v-1c0-1.4,1-3.2,2.3-3.9l9-5.2c1.2-.7,2.3-.1,2.3,1.3v10.3Z" fill="#ffb420"/><path d="M515.8,363.8l2.3,1.4c-.4-.3-1-.3-1.6.1l-2.3-1.3c.6-.4,1.2-.4,1.6-.2Z" fill="#e58b0a"/><path d="M516.5,365.3l-2.3-1.3c.133-.067.233-.133.3-.2l2.3,1.4c-.133,0-.233.033-.3.1Z" fill="#e58b0a"/><path d="M516.8,365.2l-2.3-1.4c.133,0,.233-.033.3-.1l2.3,1.4c-.133,0-.233.033-.3.1Z" fill="#e58b0a"/><path d="M517.1,365.1l-2.3-1.4c.067,0,.133,0,.2,0l2.3,1.3c-.067,0-.133.033-.2.1v0Z" fill="#e58b0a"/><path d="M517.3,365l-2.3-1.3c.067,0,.133,0,.2,0l2.2,1.3c0,0-.033,0-.1,0v0Z" fill="#e58b0a"/><path d="M517.4,365l-2.2-1.3c0,0,.033,0,.1,0l2.3,1.3c-.067,0-.133,0-.2,0v0Z" fill="#e58b0a"/><path d="M517.6,365l-2.3-1.3c.067,0,.133,0,.2,0l2.2,1.3c0,0-.033,0-.1,0v0Z" fill="#e58b0a"/><path d="M517.7,365l-2.2-1.3c0,0,.033,0,.1,0l2.2,1.3c0,0-.033,0-.1,0Z" fill="#e58b0a"/><path d="M517.8,365l-2.2-1.3c0,0,.033.033.1.1l2.3,1.3c-.067,0-.133-.033-.2-.1v0Z" fill="#e58b0a"/><path d="M518,365.1l-2.3-1.3c.067,0,.1,0,.1,0l2.3,1.3c-.067,0-.1,0-.1,0Z" fill="#e58b0a"/><path d="M518.1,365.2l-2.3-1.4l2.3,1.3c0,0,0,.033,0,.1v0Z" fill="#e58b0a"/><path d="M505.2,384.8l-2.2-1.3-.1-10.4l2.3,1.3v10.4Z" fill="#e58b0a"/><path d="M507.5,370.5l-2.3-1.3l9-5.2l2.3,1.3-9,5.2Z" fill="#e58b0a"/><path d="M505.2,374.4l-2.3-1.3c0-1.4,1.1-3.2,2.3-3.9l2.3,1.3c-1.3.7-2.3,2.5-2.3,3.9Z" fill="#e58b0a"/><path d="M505.2,374.4l-2.3-1.3c0-.133.033-.267.1-.4l2.2,1.3c0,.133,0,.267,0,.4v0Z" fill="#e58b0a"/><path d="M505.2,374l-2.2-1.3c0-.133,0-.233,0-.3l2.3,1.3c-.067.067-.1.167-.1.3v0Z" fill="#e58b0a"/><path d="M505.3,373.7l-2.3-1.3c0-.133.033-.233.1-.3l2.2,1.3c0,.133,0,.233,0,.3v0Z" fill="#e58b0a"/><path d="M505.3,373.4l-2.2-1.3c0-.067.033-.133.1-.2l2.2,1.3c0,.067-.033.133-.1.2Z" fill="#e58b0a"/><path d="M505.4,373.2l-2.2-1.3c0-.067,0-.133,0-.2l2.3,1.3c0,.067-.033.133-.1.2v0Z" fill="#e58b0a"/><path d="M505.5,373l-2.3-1.3c.067-.067.1-.133.1-.2l2.3,1.3c-.067.067-.1.133-.1.2Z" fill="#e58b0a"/><path d="M505.6,372.8l-2.3-1.3c.067-.133.1-.2.1-.2l2.3,1.3c-.067.067-.1.133-.1.2Z" fill="#e58b0a"/><path d="M505.7,372.6l-2.3-1.3c.067-.067.1-.133.1-.2l2.3,1.3c-.067.067-.1.133-.1.2Z" fill="#e58b0a"/><path d="M505.8,372.4l-2.3-1.3c.067-.067.1-.133.1-.2l2.3,1.3c-.067.067-.1.133-.1.2Z" fill="#e58b0a"/><path d="M505.9,372.2l-2.3-1.3c.067-.067.1-.133.1-.2L506,372c-.067.067-.1.133-.1.2Z" fill="#e58b0a"/><path d="M506,372l-2.3-1.3c.067-.067.133-.133.2-.2l2.2,1.3c0,.067-.033.133-.1.2v0Z" fill="#e58b0a"/><path d="M506.1,371.8l-2.2-1.3c0-.067.033-.133.1-.2l2.3,1.3c-.067.067-.133.133-.2.2v0Z" fill="#e58b0a"/><path d="M506.3,371.6l-2.3-1.3c.067-.067.133-.167.2-.3l2.3,1.4c-.067.067-.133.133-.2.2v0Z" fill="#e58b0a"/><path d="M506.5,371.4l-2.3-1.4c.067-.067.133-.133.2-.2l2.3,1.3c-.067.067-.133.167-.2.3v0Z" fill="#e58b0a"/><path d="M506.7,371.1l-2.3-1.3c.267-.267.533-.467.8-.6l2.3,1.3c-.267.133-.533.333-.8.6Z" fill="#e58b0a"/><path d="M510.7,374.8v.9l-2.7,2.9v.1l2.7-.2v.9l-3.5.1v-.7l3.5-4Z" fill="#e3f1fe"/><path d="M513.6,371.9l-1.6,7-.7.5l1.5-7.1.8-.4Z" fill="#e3f1fe"/><path d="M514,372.9l3.6-.1v.7l-3.6,3.9v-.9l2.8-2.9-2.8.2v-.9Z" fill="#e3f1fe"/><g><path id="eVNB9a12wKs528" d="M463.8,379.4v15.8l-21.5,12.5-.1-15.9l21.6-12.4Z" transform="matrix(0 0 0 0 453 393.550003)" fill="#70a6c5"/><path d="M452.8,389.4v5c0,2.7-1.1,4.7-3.1,5.8s-3.1.6-3.1-2.2v-4.9l1.7-1.1v5.1c0,1.5.5,2,1.4,1.5s1.4-1.5,1.4-3.1v-5.1l1.7-1Z" fill="#e3f1fe"/><path d="M460.5,385l-2.2,5.6l2.3,3.2-2,1.1-.7-1.2c-.3-.4-.4-.8-.7-1.2-.1.6-.3,1.2-.6,2l-.6,1.9-2,1.2l2.2-5.8-2.1-3.1l2-1.1.6,1.2c.3.4.4.7.6,1.1.2-.7.4-1.1.6-1.8l.6-2l2-1.1Z" fill="#e3f1fe"/></g><g id="eVNB9a12wKs531" transform="matrix(0 0 0 0 426.650009 421.446655)"><path d="M434.6,423.4c0,1.4-1,3.2-2.3,3.9l-9,5.2c-1.2.7-2.3.1-2.3-1.3v-5l-.4-.2.4-1v-2.5l-.4-.5.4-.2v-1c0-1.4,1-3.2,2.3-3.9l9-5.2c1.2-.7,2.3-.1,2.3,1.3v10.4Z" fill="#ff66a8"/><path d="M432.7,411.5c-.133.067-.267.133-.4.2l-9,5.2c-.333.2-.633.433-.9.7c0,0,0,.033,0,.1-.267.267-.5.567-.7.9s-.367.7-.5,1.1-.2.767-.2,1.1v10.4c0,.7.3,1.2.7,1.5l-2.3-1.4c-.4-.2-.6-.7-.6-1.4l-.1-10.4c0-.133.033-.267.1-.4c0-.133,0-.233,0-.3c0-.133.033-.233.1-.3c0,0,0-.033,0-.1s0-.1,0-.1c.067-.067.1-.133.1-.2.067-.067.1-.133.1-.2.067-.067.1-.133.1-.2s.033-.133.1-.2c0-.067.033-.133.1-.2s.1-.133.1-.2c.067-.067.133-.133.2-.2c0-.067.033-.133.1-.2s.133-.167.2-.3c0,0,.033-.033.1-.1s.1-.1.1-.1c.267-.267.533-.467.8-.6l9-5.2c.133-.067.233-.133.3-.2.067,0,.1,0,.1,0c.067,0,.1,0,.1,0s.033-.033.1-.1c.067,0,.133,0,.2,0c0,0,.033,0,.1,0c0,0,.033,0,.1,0c0,0,.033,0,.1,0s.133,0,.2,0c0,0,.033,0,.1,0c0,.067.033.1.1.1s.1,0,.1,0l2.3,1.4c-.133-.067-.233-.133-.3-.2c0,0-.033,0-.1,0s-.167,0-.3,0c0,0-.033,0-.1,0s-.167.033-.3.1c-.067,0-.1,0-.1,0v0Z" fill="#e83d8f"/><path d="M426.5,418.9c.7-.4,1.2-.6,1.5-.6l-.3,1.4c-.3,0-.7.1-1.1.4-1.1.6-1.9,1.8-1.9,3.4c0,1.3.7,1.8,1.9,1.1.4-.2.8-.6,1.1-.9l.2,1.1c-.2.3-.8.8-1.5,1.2-2.1,1.2-3.1.3-3.1-1.6-.1-2.3,1.4-4.5,3.2-5.5v0Z" fill="#e3f1fe"/><path d="M431.3,417.7v2.2l1.8-1.1v1l-1.8,1v2.3l-.9.5v-2.3l-1.8,1.1v-1l1.8-1v-2.2l.9-.5Z" fill="#e3f1fe"/></g></g></svg>